<svg xmlns="http://www.w3.org/2000/svg" xmlns:xlink="http://www.w3.org/1999/xlink" xmlns:lucid="lucid" width="1920" height="1404.6"><g transform="translate(80.00000000000011 -49)" lucid:page-tab-id="0_0"><path d="M-1600 0h4960v2560h-4960z" fill="#fff"/><path d="M611.6 77c0-4.42 3.6-8 8-8h520.8c4.4 0 8 3.58 8 8v26.15c0 4.4-3.6 8-8 8H619.6c-4.4 0-8-3.6-8-8z" stroke="#000" stroke-opacity="0" stroke-width="2" fill="#fff" fill-opacity="0"/><use xlink:href="#a" transform="matrix(1,0,0,1,615.6089147274068,73) translate(140.7779012345679 23.657777777777778)"/><use xlink:href="#b" transform="matrix(1,0,0,1,615.6089147274068,73) translate(304.73962962962963 23.657777777777778)"/><use xlink:href="#c" transform="matrix(1,0,0,1,615.6089147274068,73) translate(336.6433333333333 23.657777777777778)"/><path d="M711.57 109.77h341.96M711.6 109.77h-1.03M1053.5 109.77h1.03" stroke="#b2b2b2" stroke-width="2" fill="none"/><path d="M589.5 119.15c0-4.42 3.6-8 8-8h565c4.4 0 8 3.58 8 8v15.25c0 4.4-3.6 8-8 8h-565c-4.4 0-8-3.6-8-8z" stroke="#000" stroke-opacity="0" stroke-width="2" fill="#fff" fill-opacity="0"/><use xlink:href="#d" transform="matrix(1,0,0,1,593.5143151923994,115.1466666666667) translate(85.56195473251034 16.417037037037037)"/><use xlink:href="#e" transform="matrix(1,0,0,1,593.5143151923994,115.1466666666667) translate(151.50598765432102 16.417037037037037)"/><use xlink:href="#f" transform="matrix(1,0,0,1,593.5143151923994,115.1466666666667) translate(194.80300411522637 16.417037037037037)"/><use xlink:href="#g" transform="matrix(1,0,0,1,593.5143151923994,115.1466666666667) translate(227.0102057613169 16.417037037037037)"/><use xlink:href="#h" transform="matrix(1,0,0,1,593.5143151923994,115.1466666666667) translate(236.31545267489716 16.417037037037037)"/><use xlink:href="#i" transform="matrix(1,0,0,1,593.5143151923994,115.1466666666667) translate(307.5706995884774 16.417037037037037)"/><use xlink:href="#j" transform="matrix(1,0,0,1,593.5143151923994,115.1466666666667) translate(375.4692592592593 16.417037037037037)"/><use xlink:href="#k" transform="matrix(1,0,0,1,593.5143151923994,115.1466666666667) translate(387.9187448559671 16.417037037037037)"/><use xlink:href="#l" transform="matrix(1,0,0,1,593.5143151923994,115.1466666666667) translate(434.57244855967076 16.417037037037037)"/><use xlink:href="#m" transform="matrix(1,0,0,1,593.5143151923994,115.1466666666667) translate(460.0662757201646 16.417037037037037)"/><path d="M-.25 239.75c0 10.9-8.84 19.75-19.75 19.75-10.9 0-19.75-8.84-19.75-19.75 0-10.9 8.84-19.75 19.75-19.75 10.9 0 19.75 8.84 19.75 19.75z" stroke="#333" fill="#fff"/><path d="M-20 259.5v47.3c0 4.42 1.92 11.03 4.28 14.76L20 378m-40-63.2L-60 378m0-98.75h80" stroke="#333" fill="none"/><path d="M-60 228c0-4.42 3.58-8 8-8h64c4.42 0 8 3.58 8 8v164c0 4.42-3.58 8-8 8h-64c-4.42 0-8-3.58-8-8z" fill="none"/><use xlink:href="#n" transform="matrix(1,0,0,1,-140.0000000000001,378) translate(101.05 14.6)"/><path d="M220 258c0-4.42 3.58-8 8-8h144c4.42 0 8 3.58 8 8v104c0 4.42-3.58 8-8 8H228c-4.42 0-8-3.58-8-8z" stroke="#333" fill="#fff"/><use xlink:href="#o" transform="matrix(1,0,0,1,219.9999999999999,250) translate(37.25499999999999 63.15)"/><path d="M940 258c0-4.42 3.58-8 8-8h144c4.42 0 8 3.58 8 8v104c0 4.42-3.58 8-8 8H948c-4.42 0-8-3.58-8-8z" stroke="#333" fill="#fff"/><use xlink:href="#p" transform="matrix(1,0,0,1,939.9999999999999,250) translate(40.029999999999994 51.9)"/><use xlink:href="#q" transform="matrix(1,0,0,1,939.9999999999999,250) translate(41.12999999999999 73.5)"/><path d="M1300 258c0-4.42 3.58-8 8-8h144c4.42 0 8 3.58 8 8v104c0 4.42-3.58 8-8 8h-144c-4.42 0-8-3.58-8-8z" stroke="#333" fill="#fff"/><use xlink:href="#r" transform="matrix(1,0,0,1,1300,250) translate(34.529999999999994 63.15)"/><use xlink:href="#s" transform="matrix(1,0,0,1,1300,250) translate(96.48 63.15)"/><path d="M1660 258c0-4.42 3.58-8 8-8h144c4.42 0 8 3.58 8 8v104c0 4.42-3.58 8-8 8h-144c-4.42 0-8-3.58-8-8z" stroke="#333" fill="#fff"/><use xlink:href="#t" transform="matrix(1,0,0,1,1660,250) translate(31.354999999999997 51.9)"/><use xlink:href="#u" transform="matrix(1,0,0,1,1660,250) translate(41.529999999999994 73.5)"/><path d="M-20 316.23v10.08m0 10.08v20.15m0 10.07v20.15m0 10.07v20.15m0 10.08v20.14m0 10.07v20.15m0 10.07v20.14m0 10.07v20.16m0 10.07v20.15m0 10.07v20.15m0 10.08v20.14m0 10.08v20.14m0 10.08v20.15m0 10.07v20.15m0 10.06v20.15m0 10.08v20.15m0 10.07v20.15m0 10.08v20.14m0 10.08v20.15m0 10.07v20.15m0 10.07v20.14m0 10.07v20.16m0 10.07v20.15m0 10.08v20.14m0 10.08v20.14m0 10.08v20.15m0 10.07v20.15m0 10.07v20.15m0 10.06v20.15m0 10.08v20.15m0 10.08v20.15m0 10.08v10.07M-20 1253.1v.5M300 371v10.14m0 10.14v20.28m0 10.14v20.27m0 10.14v20.3m0 10.13v20.28m0 10.15v20.28m0 10.13v20.28m0 10.14v20.28m0 10.14v20.28m0 10.14v20.28m0 10.13v20.28m0 10.15v20.28m0 10.14v20.28m0 10.14v20.26m0 10.14v20.28m0 10.14v20.28m0 10.14v20.28m0 10.14v20.27m0 10.14v20.28m0 10.14v20.27m0 10.14v20.3m0 10.12v20.28m0 10.14v20.28m0 10.14v20.28m0 10.14v20.28m0 10.13v20.27m0 10.14v20.3m0 10.13v20.28m0 10.15v20.27m0 10.14v10.14" stroke="#333" fill="none"/><path d="M300.5 371h-1v-.5h1z" fill="#333"/><path d="M300 1253.1v.5M1020 371v9.8m0 9.8v19.58m0 9.8v19.6m0 9.78v19.6m0 9.8v19.58m0 9.8v19.6m0 9.78v19.6m0 9.8v19.58m0 9.8v19.6m0 9.8v19.58m0 9.8v19.58m0 9.8v19.6m0 9.8v19.58m0 9.8v19.58m0 9.8v19.6m0 9.8v19.58m0 9.8v19.58m0 9.8v19.6m0 9.8v19.58m0 9.8v19.58m0 9.8v19.6m0 9.8v19.58m0 9.8v19.58m0 9.8v19.6m0 9.8v19.58m0 9.8v19.58m0 9.8v19.6m0 9.8v19.58m0 9.8v19.58m0 9.8v19.6m0 9.8v9.78" stroke="#333" fill="none"/><path d="M1020.5 371h-1v-.5h1z" fill="#333"/><path d="M1020 1252.6v.5M1380 371v10.14m0 10.14v20.28m0 10.14v20.27m0 10.14v20.3m0 10.13v20.28m0 10.15v20.28m0 10.13v20.28m0 10.14v20.28m0 10.14v20.28m0 10.14v20.28m0 10.13v20.28m0 10.15v20.28m0 10.14v20.28m0 10.14v20.26m0 10.14v20.28m0 10.14v20.28m0 10.14v20.28m0 10.14v20.27m0 10.14v20.28m0 10.14v20.27m0 10.14v20.3m0 10.12v20.28m0 10.14v20.28m0 10.14v20.28m0 10.14v20.28m0 10.13v20.27m0 10.14v20.3m0 10.13v20.28m0 10.15v20.27m0 10.14v10.14" stroke="#333" fill="none"/><path d="M1380.5 371h-1v-.5h1z" fill="#333"/><path d="M1380 1253.1v.5M1740 371v10.13m0 10.14v20.26m0 10.14v20.26m0 10.14v20.26m0 10.14v20.26m0 10.14v20.26m0 10.14v20.26m0 10.14v20.26m0 10.14v20.26m0 10.14v20.26m0 10.14v20.26m0 10.14v20.26m0 10.14v20.26m0 10.14v20.26m0 10.14v20.26m0 10.14v20.26m0 10.14v20.26m0 10.14v20.26m0 10.14v20.27m0 10.13v20.27m0 10.13v20.27m0 10.13v20.27m0 10.13v20.27m0 10.13v20.27m0 10.13v20.27m0 10.13v20.27m0 10.13v20.27m0 10.13v20.27m0 10.13v20.27m0 10.13v10.13" stroke="#333" fill="none"/><path d="M1740.5 371h-1v-.5h1z" fill="#333"/><path d="M1740 1252.6v.5M-19.5 453.6h282.62M-19.5 453.6h-.5" stroke="#333" fill="none"/><path d="M277.88 453.6l-14.26 4.64v-9.27z" stroke="#333" fill="#333"/><use xlink:href="#v" transform="matrix(1,0,0,1,28.12500000000003,428.0006898436249) translate(0.0049999999999954525 14.4)"/><use xlink:href="#w" transform="matrix(1,0,0,1,28.12500000000003,428.0006898436249) translate(43.555 14.4)"/><use xlink:href="#x" transform="matrix(1,0,0,1,28.12500000000003,428.0006898436249) translate(86.505 14.4)"/><use xlink:href="#y" transform="matrix(1,0,0,1,28.12500000000003,428.0006898436249) translate(107.455 14.4)"/><path d="M580 258c0-4.42 3.58-8 8-8h144c4.42 0 8 3.58 8 8v104c0 4.42-3.58 8-8 8H588c-4.42 0-8-3.58-8-8z" stroke="#333" fill="#fff"/><use xlink:href="#z" transform="matrix(1,0,0,1,579.9999999999999,250) translate(17.654999999999994 63.15)"/><path d="M300.5 493.6h322.62M300.5 493.6h-.5" stroke="#333" fill="none"/><path d="M637.88 493.6l-14.26 4.64v-9.27z" stroke="#333" fill="#333"/><use xlink:href="#A" transform="matrix(1,0,0,1,429.3249999999999,468.0026898436248) translate(0.005000000000002558 14.4)"/><path d="M660 371v9.8m0 9.78v19.58m0 9.8v19.57m0 9.8v19.57m0 9.8v19.57m0 9.8v19.57m0 9.8V557m0 9.8v19.58m0 9.8v19.57m0 9.8v19.57m0 9.8v19.57m0 9.78v19.58m0 9.8v19.57m0 9.8v19.57m0 9.8v19.57m0 9.8v19.58m0 9.78v19.58m0 9.8v19.58m0 9.8v19.57m0 9.8v19.57m0 9.8v19.57m0 9.78v19.58m0 9.8v19.57m0 9.8v19.57m0 9.8v19.57m0 9.8v19.57m0 9.8v19.57m0 9.8v19.58m0 9.8v19.57m0 9.8v19.57m0 9.8v9.78" stroke="#333" fill="none"/><path d="M660.5 371h-1v-.5h1z" fill="#333"/><path d="M660 1252.1v.5M343.05 552.27h5.02m5.03 0h10.04m5.03 0h10.04m5.03 0h10.05m5.02 0h10.05m5.02 0h10.05m5.02 0h10.05m5 0h10.06m5.02 0h10.05m5.02 0h10.04m5.02 0h10.04m5.03 0h10.03m5.03 0h10.04m5.02 0h10.05m5.02 0h10.04m5.02 0h10.05m5.03 0h10.05m5.02 0h10.05m5.02 0h10.05m5.02 0h10.04m5.03 0h10.05m5.03 0h5.02" stroke="#333" fill="none"/><path d="M328.28 552.27l14.27-4.64v9.27z" stroke="#333" fill="#333"/><path d="M659.5 552.27h.5" stroke="#333" fill="none"/><use xlink:href="#B" transform="matrix(1,0,0,1,444.4083333333334,526.6693565102915) translate(0.005000000000002558 14.4)"/><path d="M-3.62 572.4l5.06.05m5.05.04l10.1.07m5.04.04l10.1.1m5.06.04l10.1.1m5.05.03l10.1.08m5.06.04l10.1.08m5.07.04l10.1.08m5.05.05l10.1.08m5.06.04l10.1.1m5.05.03l10.1.08m5.06.05l10.1.08m5.05.05l10.1.1m5.05.03l10.1.08m5.06.04l10.1.1m5.05.03l10.12.1m5.05.03l10.1.08m5.05.04l10.1.1m5.06.03l10.1.1m5.06.04l10.1.08m5.05.04l10.1.1m5.05.03l5.05.03" stroke="#333" fill="none"/><path d="M-18.38 572.28l14.3-4.52-.08 9.27z" stroke="#333" fill="#333"/><path d="M299.5 574.93h.5" stroke="#333" fill="none"/><use xlink:href="#C" transform="matrix(1,0,0,1,54.18093429077976,548.0248387999129) translate(0.0049999999999954525 14.4)"/><use xlink:href="#w" transform="matrix(1,0,0,1,54.18093429077976,548.0248387999129) translate(49.955 14.4)"/><use xlink:href="#D" transform="matrix(1,0,0,1,54.18093429077976,548.0248387999129) translate(92.905 14.4)"/><path d="M-19.5 633.6h282.62M-19.5 633.6h-.5" stroke="#333" fill="none"/><path d="M277.88 633.6l-14.26 4.64v-9.27z" stroke="#333" fill="#333"/><use xlink:href="#E" transform="matrix(1,0,0,1,68.79999999999988,608.000689843625) translate(0.005000000000002558 14.4)"/><use xlink:href="#F" transform="matrix(1,0,0,1,68.79999999999988,608.000689843625) translate(50.955000000000005 14.4)"/><path d="M321 673.6h302.12" stroke="#333" fill="none"/><path d="M321 674.1h-.5v-1h.5z" fill="#333"/><path d="M637.88 673.6l-14.26 4.64v-9.27z" stroke="#333" fill="#333"/><use xlink:href="#G" transform="matrix(1,0,0,1,390.6249999999999,648.000689843625) translate(0.0049999999999954525 14.4)"/><path d="M660.5 713.6h343.12M660.5 713.6h-.5" stroke="#333" fill="none"/><path d="M1018.38 713.6l-14.26 4.64v-9.27z" stroke="#333" fill="#333"/><use xlink:href="#H" transform="matrix(1,0,0,1,764.6,688.0006898436249) translate(0.0049999999999954525 14.4)"/><path d="M1020.5 876.27h322.62M1020.5 876.27h-.5" stroke="#333" fill="none"/><path d="M1357.88 876.27l-14.26 4.63v-9.27z" stroke="#333" fill="#333"/><use xlink:href="#I" transform="matrix(1,0,0,1,1128.8259454793663,850.668856511684) translate(0.005000000000002558 14.4)"/><path d="M1020.5 1196.27H1375c0-2.76 2.24-5 5-5s5 2.24 5 5h318.12M1020.5 1196.27h-.5" stroke="#333" fill="none"/><path d="M1717.88 1196.27l-14.26 4.63v-9.27z" stroke="#333" fill="#333"/><use xlink:href="#J" transform="matrix(1,0,0,1,1286.900797260833,1170.6688565108614) translate(0.0049999999999954525 14.4)"/><path d="M1056.88 933.6h4.9m4.88 0h9.78m4.88 0h9.78m4.9 0h9.77m4.88 0h9.78m4.9 0h9.76m4.88 0h9.78m4.9 0h9.76m4.9 0h9.77m4.88 0h9.77m4.9 0h9.77m4.88 0h9.78m4.9 0h9.76m4.9 0h9.77m4.9 0h9.77m4.9 0h9.77m4.9 0h9.76m4.9 0h9.77m4.88 0h9.78m4.9 0h9.77m4.88 0h9.78m4.9 0h9.76m4.9 0h4.88" stroke="#333" fill="none"/><path d="M1042.12 933.6l14.26-4.63v9.27z" stroke="#333" fill="#333"/><path d="M1379.5 933.6h.5" stroke="#333" fill="none"/><use xlink:href="#K" transform="matrix(1,0,0,1,1118.95,908.0026898436248) translate(0.0049999999999954525 14.4)"/><path d="M1020.5 1073.6h322.62M1020.5 1073.6h-.5" stroke="#333" fill="none"/><path d="M1357.88 1073.6l-14.26 4.64v-9.27z" stroke="#333" fill="#333"/><use xlink:href="#L" transform="matrix(1,0,0,1,1084.9525323090384,1048.0021898473544) translate(0.0049999999999954525 14.4)"/><path d="M1041 1133.6h302.12" stroke="#333" fill="none"/><path d="M1041 1134.1h-.5v-1h.5z" fill="#333"/><path d="M1357.88 1133.6l-14.26 4.64v-9.27z" stroke="#333" fill="#333"/><use xlink:href="#M" transform="matrix(1,0,0,1,1150.425,1108.002689843625) translate(0.005000000000002558 14.4)"/><use xlink:href="#N" transform="matrix(1,0,0,1,1150.425,1108.002689843625) translate(73.155 14.4)"/><path d="M-20 1254.1v9.95m0 9.94v19.88m0 9.94v19.9m0 9.94v19.9m0 9.93v19.88m0 9.94v19.9m0 9.94v9.94M-20 1254.12v-.52M-20 1433.1v.5M300 1254.1v9.95m0 9.94v19.88m0 9.94v19.9m0 9.94v19.9m0 9.93v19.88m0 9.94v19.9m0 9.94v9.94M300 1254.12v-.52M300 1433.1v.5M660 1254.1v9.95m0 9.94v19.88m0 9.94v19.9m0 9.94v19.9m0 9.93v19.88m0 9.94v19.9m0 9.94v9.94M660 1254.12v-.52M660 1433.1v.5M1022.67 1254.1v9.8m0 9.8v19.6m0 9.78v19.6m0 9.8v9.8l-.4.93-.94.4-.94.4-.4.94v9.8m0 9.8v19.58m0 9.8v19.6m0 9.8v9.78M1022.67 1254.12v-.52M1020 1433.1v.5M1740 1254.1v9.95m0 9.94v19.88m0 9.94v19.9m0 9.94v19.9m0 9.93v19.88m0 9.94v19.9m0 9.94v9.94M1740 1254.12v-.52M1740 1433.1v.5M1381.32 1254.1v9.87m0 9.87v19.75m0 9.86v19.74m0 9.87v9.87l-.2.47-.46.2-.47.2-.2.46v9.88m0 9.87v19.75m0 9.87v19.74m0 9.87v9.87M1381.32 1254.12v-.52M1380 1433.1v.5M696.88 1314.5h4.93m4.94 0h9.86m4.93 0h9.85m4.93 0h9.87m4.93 0h9.85m4.93 0h9.86m4.93 0h9.86m4.92 0h9.86m4.94 0h9.86m4.93 0h9.85m4.93 0h9.87m4.93 0h9.85m4.93 0h9.86m4.93 0h9.85m4.93 0h9.86m4.94 0h9.86m4.92 0h9.86m4.93 0h9.87m4.93 0h9.85m4.93 0h9.86m4.93 0h9.85m4.93 0h9.86m4.94 0h4.93" stroke="#333" fill="none"/><path d="M682.12 1314.5l14.26-4.64v9.27z" stroke="#333" fill="#333"/><path d="M1022.15 1314.5h.52" stroke="#333" fill="none"/><use xlink:href="#O" transform="matrix(1,0,0,1,735.7083333333333,1288.8915787325136) translate(0.0049999999999954525 14.4)"/><path d="M336.88 1373.6h4.9m4.88 0h9.78m4.88 0h9.78m4.9 0h9.77m4.88 0h9.78m4.9 0h9.76m4.88 0h9.78m4.9 0h9.76m4.9 0h9.77m4.88 0h9.77m4.9 0h9.77m4.88 0h9.78m4.9 0h9.76m4.9 0h9.77m4.9 0h9.77m4.9 0h9.77m4.9 0h9.76m4.9 0h9.77m4.88 0h9.78m4.9 0h9.77m4.88 0h9.78m4.9 0h9.76m4.9 0h4.88" stroke="#333" fill="none"/><path d="M322.12 1373.6l14.26-4.63v9.27z" stroke="#333" fill="#333"/><path d="M659.5 1373.6h.5" stroke="#333" fill="none"/><use xlink:href="#P" transform="matrix(1,0,0,1,403.8749999999999,1348.0026898436247) translate(0.0049999999999954525 14.4)"/><path d="M-3.62 1413.6h5.06m5.05 0h10.1m5.04 0h10.1m5.06 0h10.1m5.06 0h10.1m5.05 0h10.1m5.07 0h10.1m5.05 0h10.1m5.06 0h10.1m5.05 0h10.1m5.06 0H153m5.05 0h10.1m5.05 0h10.1m5.06 0h10.1m5.05 0h10.12m5.05 0h10.1m5.05 0h10.1m5.06 0h10.1m5.06 0h10.1m5.05 0h10.1m5.05 0h5.05" stroke="#333" fill="none"/><path d="M-18.38 1413.6l14.26-4.63v9.27z" stroke="#333" fill="#333"/><path d="M299.5 1413.6h.5" stroke="#333" fill="none"/><use xlink:href="#C" transform="matrix(1,0,0,1,-7.425000000000125,1388.002689843625) translate(0.0049999999999954525 14.4)"/><use xlink:href="#Q" transform="matrix(1,0,0,1,-7.425000000000125,1388.002689843625) translate(49.955 14.4)"/><use xlink:href="#R" transform="matrix(1,0,0,1,-7.425000000000125,1388.002689843625) translate(119.955 14.4)"/><use xlink:href="#S" transform="matrix(1,0,0,1,-7.425000000000125,1388.002689843625) translate(154.95499999999998 14.4)"/><use xlink:href="#T" transform="matrix(1,0,0,1,-7.425000000000125,1388.002689843625) translate(224.95499999999998 14.4)"/><path d="M280 401.6c0-4.42 3.58-8 8-8h24c4.42 0 8 3.58 8 8v1024c0 4.42-3.58 8-8 8h-24c-4.42 0-8-3.58-8-8zM640 474.94c0-4.42 3.58-8 8-8h24c4.42 0 8 3.58 8 8v910.66c0 4.42-3.58 8-8 8h-24c-4.42 0-8-3.58-8-8zM1000 681.6c0-4.42 3.58-8 8-8h24c4.42 0 8 3.58 8 8v644c0 4.42-3.58 8-8 8h-24c-4.42 0-8-3.58-8-8zM1360 841.6c0-4.42 3.58-8 8-8h24c4.42 0 8 3.58 8 8v304c0 4.42-3.58 8-8 8h-24c-4.42 0-8-3.58-8-8zM1720 1172.27c0-4.42 3.58-8 8-8h24c4.42 0 8 3.58 8 8v104c0 4.42-3.58 8-8 8h-24c-4.42 0-8-3.58-8-8z" stroke="#333" fill="#fff"/><path d="M1719 1244.27h-334c0-2.76-2.24-5-5-5s-5 2.24-5 5h-318.12" stroke="#333" fill="none"/><path d="M1719.5 1244.77h-.5v-1h.5z" fill="#333"/><path d="M1042.12 1244.27l14.26-4.64v9.27z" stroke="#333" fill="#333"/><g><use xlink:href="#U" transform="matrix(1,0,0,1,1336.575,1218.6693565102917) translate(0.005000000000002558 14.4)"/></g><path d="M-19.5 1025.6H295c0-2.76 2.24-5 5-5s5 2.24 5 5h350c0-2.76 2.24-5 5-5s5 2.24 5 5h318.12M-19.5 1025.6h-.5" stroke="#333" fill="none"/><path d="M997.88 1025.6l-14.26 4.64v-9.27z" stroke="#333" fill="#333"/><g><use xlink:href="#V" transform="matrix(1,0,0,1,414.89999999999986,1000.0006898436249) translate(0.0049999999999954525 14.4)"/></g><path d="M-3.62 961.6h4.98m4.98 0h9.95m4.97 0h9.95m4.98 0h9.95m4.98 0h9.95m4.98 0H76m5 0h9.95m4.97 0h9.96m4.97 0h9.96m4.98 0h9.96m4.98 0h9.95m4.98 0h9.95m4.98 0h9.95m4.98 0h9.96m4.98 0h9.95m4.97 0h9.95m4.98 0h9.95m4.98 0h9.95m4.98 0h9.96m4.97 0h9.95m4.97 0H295l.96-2.95 2.46-1.8 1.58-.25 2.95.97 1.8 2.45.25 1.58h5.07m5.07 0h10.15m5.06 0h10.15m5.08 0h10.14m5.08 0h10.14m5.07 0h10.16m5.07 0h10.15m5.07 0h10.14m5.07 0h10.14m5.08 0h10.15m5.07 0h10.15m5.07 0h10.14m5.08 0h10.14m5.07 0h10.15m5.07 0h10.15m5.07 0h10.13m5.08 0h10.15m5.07 0h10.15m5.07 0H584m5.06 0h10.14m5.08 0h10.14m5.07 0h10.14m5.07 0h10.16m5.07 0H655l.96-2.95 2.46-1.8 1.58-.25 2.95.97 1.8 2.45.25 1.58h5.06m5.06 0h10.12m5.06 0h10.12m5.06 0h10.13m5.07 0h10.12m5.05 0h10.12m5.06 0h10.12m5.06 0h10.13m5.06 0h10.12m5.06 0h10.12m5.06 0h10.12m5.06 0h10.12m5.06 0h10.12m5.06 0h10.12m5.06 0h10.13m5.07 0h10.12m5.05 0h10.12m5.06 0h10.12m5.06 0h10.13m5.06 0h10.12m5.06 0h10.12m5.06 0h10.12m5.06 0H999" stroke="#333" fill="none"/><path d="M-18.38 961.6l14.26-4.63v9.27z" stroke="#333" fill="#333"/><path d="M999.5 962.1h-.5v-1h.5z" fill="#333"/><g><use xlink:href="#W" transform="matrix(1,0,0,1,429.7999999999999,936.0016898436245) translate(0.005000000000002558 14.4)"/></g><path d="M-19.5 830.93H295c0-2.76 2.24-5 5-5s5 2.24 5 5h350c0-2.76 2.24-5 5-5s5 2.24 5 5h318.12M-19.5 830.93h-.5" stroke="#333" fill="none"/><path d="M997.88 830.93l-14.26 4.64v-9.27z" stroke="#333" fill="#333"/><g><use xlink:href="#X" transform="matrix(1,0,0,1,415.8749999999999,805.3340231769585) translate(0.0049999999999954525 14.4)"/></g><path d="M-3.62 774.94h4.98m4.98 0h9.95m4.97 0h9.95m4.98 0h9.95m4.98 0h9.95m4.98 0H76m5 0h9.95m4.97 0h9.96m4.97 0h9.96m4.98 0h9.96m4.98 0h9.95m4.98 0h9.95m4.98 0h9.95m4.98 0h9.96m4.98 0h9.95m4.97 0h9.95m4.98 0h9.95m4.98 0h9.95m4.98 0h9.96m4.97 0h9.95m4.97 0H295l.96-2.96 2.46-1.8 1.58-.24 2.95.96 1.8 2.45.25 1.6h5.07m5.07 0h10.15m5.06 0h10.15m5.08 0h10.14m5.08 0h10.14m5.07 0h10.16m5.07 0h10.15m5.07 0h10.14m5.07 0h10.14m5.08 0h10.15m5.07 0h10.15m5.07 0h10.14m5.08 0h10.14m5.07 0h10.15m5.07 0h10.15m5.07 0h10.13m5.08 0h10.15m5.07 0h10.15m5.07 0H584m5.06 0h10.14m5.08 0h10.14m5.07 0h10.14m5.07 0h10.16m5.07 0H655l.96-2.97 2.46-1.8 1.58-.24 2.95.96 1.8 2.45.25 1.6h5.06m5.06 0h10.12m5.06 0h10.12m5.06 0h10.13m5.07 0h10.12m5.05 0h10.12m5.06 0h10.12m5.06 0h10.13m5.06 0h10.12m5.06 0h10.12m5.06 0h10.12m5.06 0h10.12m5.06 0h10.12m5.06 0h10.12m5.06 0h10.13m5.07 0h10.12m5.05 0h10.12m5.06 0h10.12m5.06 0h10.13m5.06 0h10.12m5.06 0h10.12m5.06 0h10.12m5.06 0H999" stroke="#333" fill="none"/><path d="M-18.38 774.94l14.26-4.64v9.27z" stroke="#333" fill="#333"/><path d="M999.5 775.44h-.5v-1h.5z" fill="#333"/><g><use xlink:href="#Y" transform="matrix(1,0,0,1,405.4,749.3350231769587) translate(0.0049999999999954525 14.4)"/></g><defs><path fill="#b2b2b2" d="M67-125c0 53 21 87 73 88 37 1 54-22 65-47l45 17C233-25 199 4 140 4 58 4 20-42 15-125 8-235 124-281 211-232c18 10 29 29 36 50l-46 12c-8-25-30-41-62-41-52 0-71 34-72 86" id="Z"/><path fill="#b2b2b2" d="M110-194c64 0 96 36 96 99 0 64-35 99-97 99-61 0-95-36-95-99 0-62 34-99 96-99zm-1 164c35 0 45-28 45-65 0-40-10-65-43-65-34 0-45 26-45 65 0 36 10 65 43 65" id="aa"/><path fill="#b2b2b2" d="M135-194c87-1 58 113 63 194h-50c-7-57 23-157-34-157-59 0-34 97-39 157H25l-1-190h47c2 12-1 28 3 38 12-26 28-41 61-42" id="ab"/><path fill="#b2b2b2" d="M115-3C79 11 28 4 28-45v-112H4v-33h27l15-45h31v45h36v33H77v99c-1 23 16 31 38 25v30" id="ac"/><path fill="#b2b2b2" d="M135-150c-39-12-60 13-60 57V0H25l-1-190h47c2 13-1 29 3 40 6-28 27-53 61-41v41" id="ad"/><path fill="#b2b2b2" d="M25-224v-37h50v37H25zM25 0v-190h50V0H25" id="ae"/><path fill="#b2b2b2" d="M135-194c52 0 70 43 70 98 0 56-19 99-73 100-30 1-46-15-58-35L72 0H24l1-261h50v104c11-23 29-37 60-37zM114-30c31 0 40-27 40-66 0-37-7-63-39-63s-41 28-41 65c0 36 8 64 40 64" id="af"/><path fill="#b2b2b2" d="M85 4C-2 5 27-109 22-190h50c7 57-23 150 33 157 60-5 35-97 40-157h50l1 190h-47c-2-12 1-28-3-38-12 25-28 42-61 42" id="ag"/><path fill="#b2b2b2" d="M195-6C206 82 75 100 31 46c-4-6-6-13-8-21l49-6c3 16 16 24 34 25 40 0 42-37 40-79-11 22-30 35-61 35-53 0-70-43-70-97 0-56 18-96 73-97 30 0 46 14 59 34l2-30h47zm-90-29c32 0 41-27 41-63 0-35-9-62-40-62-32 0-39 29-40 63 0 36 9 62 39 62" id="ah"/><g id="a"><use transform="matrix(0.0728395061728395,0,0,0.0728395061728395,0,0)" xlink:href="#Z"/><use transform="matrix(0.0728395061728395,0,0,0.0728395061728395,18.86543209876543,0)" xlink:href="#aa"/><use transform="matrix(0.0728395061728395,0,0,0.0728395061728395,34.81728395061728,0)" xlink:href="#ab"/><use transform="matrix(0.0728395061728395,0,0,0.0728395061728395,50.76913580246913,0)" xlink:href="#ac"/><use transform="matrix(0.0728395061728395,0,0,0.0728395061728395,59.43703703703703,0)" xlink:href="#ad"/><use transform="matrix(0.0728395061728395,0,0,0.0728395061728395,69.63456790123456,0)" xlink:href="#ae"/><use transform="matrix(0.0728395061728395,0,0,0.0728395061728395,76.91851851851851,0)" xlink:href="#af"/><use transform="matrix(0.0728395061728395,0,0,0.0728395061728395,92.87037037037037,0)" xlink:href="#ag"/><use transform="matrix(0.0728395061728395,0,0,0.0728395061728395,108.82222222222222,0)" xlink:href="#ac"/><use transform="matrix(0.0728395061728395,0,0,0.0728395061728395,117.49012345679014,0)" xlink:href="#ae"/><use transform="matrix(0.0728395061728395,0,0,0.0728395061728395,124.77407407407406,0)" xlink:href="#ab"/><use transform="matrix(0.0728395061728395,0,0,0.0728395061728395,140.72592592592594,0)" xlink:href="#ah"/></g><g id="b"><use transform="matrix(0.0728395061728395,0,0,0.0728395061728395,0,0)" xlink:href="#ac"/><use transform="matrix(0.0728395061728395,0,0,0.0728395061728395,8.667901234567902,0)" xlink:href="#aa"/></g><path fill="#b2b2b2" d="M67-125c0 54 23 88 75 88 28 0 53-7 68-21v-34h-60v-39h108v91C232-14 192 4 140 4 58 4 20-42 15-125 8-236 126-280 215-234c19 10 29 26 37 47l-47 15c-11-23-29-39-63-39-53 1-75 33-75 86" id="ai"/><path fill="#b2b2b2" d="M133-34C117-15 103 5 69 4 32 3 11-16 11-54c-1-60 55-63 116-61 1-26-3-47-28-47-18 1-26 9-28 27l-52-2c7-38 36-58 82-57s74 22 75 68l1 82c-1 14 12 18 25 15v27c-30 8-71 5-69-32zm-48 3c29 0 43-24 42-57-32 0-66-3-65 30 0 17 8 27 23 27" id="aj"/><path fill="#b2b2b2" d="M25 0v-261h50V0H25" id="ak"/><g id="c"><use transform="matrix(0.0728395061728395,0,0,0.0728395061728395,0,0)" xlink:href="#ai"/><use transform="matrix(0.0728395061728395,0,0,0.0728395061728395,20.39506172839506,0)" xlink:href="#aa"/><use transform="matrix(0.0728395061728395,0,0,0.0728395061728395,36.34691358024691,0)" xlink:href="#aj"/><use transform="matrix(0.0728395061728395,0,0,0.0728395061728395,50.91481481481481,0)" xlink:href="#ak"/></g><path fill="#b2b2b2" d="M30-248c87 1 191-15 191 75 0 78-77 80-158 76V0H30v-248zm33 125c57 0 124 11 124-50 0-59-68-47-124-48v98" id="al"/><path fill="#b2b2b2" d="M100-194c63 0 86 42 84 106H49c0 40 14 67 53 68 26 1 43-12 49-29l28 8c-11 28-37 45-77 45C44 4 14-33 15-96c1-61 26-98 85-98zm52 81c6-60-76-77-97-28-3 7-6 17-6 28h103" id="am"/><path fill="#b2b2b2" d="M24 0v-261h32V0H24" id="an"/><path fill="#b2b2b2" d="M59-47c-2 24 18 29 38 22v24C64 9 27 4 27-40v-127H5v-23h24l9-43h21v43h35v23H59v120" id="ao"/><path fill="#b2b2b2" d="M143 0L79-87 56-68V0H24v-261h32v163l83-92h37l-77 82L181 0h-38" id="ap"/><path fill="#b2b2b2" d="M100-194c62-1 85 37 85 99 1 63-27 99-86 99S16-35 15-95c0-66 28-99 85-99zM99-20c44 1 53-31 53-75 0-43-8-75-51-75s-53 32-53 75 10 74 51 75" id="aq"/><path fill="#b2b2b2" d="M108 0H70L1-190h34L89-25l56-165h34" id="ar"/><path fill="#b2b2b2" d="M68-38c1 34 0 65-14 84H32c9-13 17-26 17-46H33v-38h35" id="as"/><g id="d"><use transform="matrix(0.04248971193415638,0,0,0.04248971193415638,0,0)" xlink:href="#al"/><use transform="matrix(0.04248971193415638,0,0,0.04248971193415638,10.19753086419753,0)" xlink:href="#am"/><use transform="matrix(0.04248971193415638,0,0,0.04248971193415638,18.695473251028805,0)" xlink:href="#an"/><use transform="matrix(0.04248971193415638,0,0,0.04248971193415638,22.05216049382716,0)" xlink:href="#ao"/><use transform="matrix(0.04248971193415638,0,0,0.04248971193415638,26.301131687242798,0)" xlink:href="#am"/><use transform="matrix(0.04248971193415638,0,0,0.04248971193415638,34.79907407407407,0)" xlink:href="#ap"/><use transform="matrix(0.04248971193415638,0,0,0.04248971193415638,42.447222222222216,0)" xlink:href="#aq"/><use transform="matrix(0.04248971193415638,0,0,0.04248971193415638,50.94516460905349,0)" xlink:href="#ar"/><use transform="matrix(0.04248971193415638,0,0,0.04248971193415638,57.44609053497941,0)" xlink:href="#as"/></g><path fill="#b2b2b2" d="M205 0l-28-72H64L36 0H1l101-248h38L239 0h-34zm-38-99l-47-123c-12 45-31 82-46 123h93" id="at"/><path fill="#b2b2b2" d="M117-194c89-4 53 116 60 194h-32v-121c0-31-8-49-39-48C34-167 62-67 57 0H25l-1-190h30c1 10-1 24 2 32 11-22 29-35 61-36" id="au"/><path fill="#b2b2b2" d="M177-190C167-65 218 103 67 71c-23-6-38-20-44-43l32-5c15 47 100 32 89-28v-30C133-14 115 1 83 1 29 1 15-40 15-95c0-56 16-97 71-98 29-1 48 16 59 35 1-10 0-23 2-32h30zM94-22c36 0 50-32 50-73 0-42-14-75-50-75-39 0-46 34-46 75s6 73 46 73" id="av"/><g id="e"><use transform="matrix(0.04248971193415638,0,0,0.04248971193415638,0,0)" xlink:href="#at"/><use transform="matrix(0.04248971193415638,0,0,0.04248971193415638,10.19753086419753,0)" xlink:href="#au"/><use transform="matrix(0.04248971193415638,0,0,0.04248971193415638,18.695473251028805,0)" xlink:href="#av"/><use transform="matrix(0.04248971193415638,0,0,0.04248971193415638,27.193415637860078,0)" xlink:href="#am"/><use transform="matrix(0.04248971193415638,0,0,0.04248971193415638,35.691358024691354,0)" xlink:href="#an"/></g><path fill="#b2b2b2" d="M87 75C49 33 22-17 22-94c0-76 28-126 65-167h31c-38 41-64 92-64 168S80 34 118 75H87" id="aw"/><path fill="#b2b2b2" d="M232-93c-1 65-40 97-104 97C67 4 28-28 28-90v-158h33c8 89-33 224 67 224 102 0 64-133 71-224h33v155" id="ax"/><path fill="#b2b2b2" d="M143 4C61 4 22-44 18-125c-5-107 100-154 193-111 17 8 29 25 37 43l-32 9c-13-25-37-40-76-40-61 0-88 39-88 99 0 61 29 100 91 101 35 0 62-11 79-27v-45h-74v-28h105v86C228-13 192 4 143 4" id="ay"/><g id="f"><use transform="matrix(0.04248971193415638,0,0,0.04248971193415638,0,0)" xlink:href="#aw"/><use transform="matrix(0.04248971193415638,0,0,0.04248971193415638,5.056275720164609,0)" xlink:href="#ax"/><use transform="matrix(0.04248971193415638,0,0,0.04248971193415638,16.06111111111111,0)" xlink:href="#ay"/></g><path fill="#b2b2b2" d="M16-82v-28h88v28H16" id="az"/><use transform="matrix(0.04248971193415638,0,0,0.04248971193415638,0,0)" xlink:href="#az" id="g"/><path fill="#b2b2b2" d="M212-179c-10-28-35-45-73-45-59 0-87 40-87 99 0 60 29 101 89 101 43 0 62-24 78-52l27 14C228-24 195 4 139 4 59 4 22-46 18-125c-6-104 99-153 187-111 19 9 31 26 39 46" id="aA"/><path fill="#b2b2b2" d="M210-169c-67 3-38 105-44 169h-31v-121c0-29-5-50-35-48C34-165 62-65 56 0H25l-1-190h30c1 10-1 24 2 32 10-44 99-50 107 0 11-21 27-35 58-36 85-2 47 119 55 194h-31v-121c0-29-5-49-35-48" id="aB"/><path fill="#b2b2b2" d="M115-194c55 1 70 41 70 98S169 2 115 4C84 4 66-9 55-30l1 105H24l-1-265h31l2 30c10-21 28-34 59-34zm-8 174c40 0 45-34 45-75s-6-73-45-74c-42 0-51 32-51 76 0 43 10 73 51 73" id="aC"/><path fill="#b2b2b2" d="M84 4C-5 8 30-112 23-190h32v120c0 31 7 50 39 49 72-2 45-101 50-169h31l1 190h-30c-1-10 1-25-2-33-11 22-28 36-60 37" id="aD"/><path fill="#b2b2b2" d="M114-163C36-179 61-72 57 0H25l-1-190h30c1 12-1 29 2 39 6-27 23-49 58-41v29" id="aE"/><g id="h"><use transform="matrix(0.04248971193415638,0,0,0.04248971193415638,0,0)" xlink:href="#aA"/><use transform="matrix(0.04248971193415638,0,0,0.04248971193415638,11.004835390946502,0)" xlink:href="#aq"/><use transform="matrix(0.04248971193415638,0,0,0.04248971193415638,19.502777777777776,0)" xlink:href="#aB"/><use transform="matrix(0.04248971193415638,0,0,0.04248971193415638,32.20720164609053,0)" xlink:href="#aC"/><use transform="matrix(0.04248971193415638,0,0,0.04248971193415638,40.70514403292181,0)" xlink:href="#aD"/><use transform="matrix(0.04248971193415638,0,0,0.04248971193415638,49.203086419753085,0)" xlink:href="#ao"/><use transform="matrix(0.04248971193415638,0,0,0.04248971193415638,53.45205761316872,0)" xlink:href="#am"/><use transform="matrix(0.04248971193415638,0,0,0.04248971193415638,61.949999999999996,0)" xlink:href="#aE"/></g><path fill="#b2b2b2" d="M185-189c-5-48-123-54-124 2 14 75 158 14 163 119 3 78-121 87-175 55-17-10-28-26-33-46l33-7c5 56 141 63 141-1 0-78-155-14-162-118-5-82 145-84 179-34 5 7 8 16 11 25" id="aF"/><path fill="#b2b2b2" d="M96-169c-40 0-48 33-48 73s9 75 48 75c24 0 41-14 43-38l32 2c-6 37-31 61-74 61-59 0-76-41-82-99-10-93 101-131 147-64 4 7 5 14 7 22l-32 3c-4-21-16-35-41-35" id="aG"/><path fill="#b2b2b2" d="M24-231v-30h32v30H24zM24 0v-190h32V0H24" id="aH"/><path fill="#b2b2b2" d="M33-261c38 41 65 92 65 168S71 34 33 75H2C39 34 66-17 66-93S39-220 2-261h31" id="aI"/><g id="i"><use transform="matrix(0.04248971193415638,0,0,0.04248971193415638,0,0)" xlink:href="#aF"/><use transform="matrix(0.04248971193415638,0,0,0.04248971193415638,10.19753086419753,0)" xlink:href="#aG"/><use transform="matrix(0.04248971193415638,0,0,0.04248971193415638,17.845679012345677,0)" xlink:href="#aH"/><use transform="matrix(0.04248971193415638,0,0,0.04248971193415638,21.20236625514403,0)" xlink:href="#am"/><use transform="matrix(0.04248971193415638,0,0,0.04248971193415638,29.7003086419753,0)" xlink:href="#au"/><use transform="matrix(0.04248971193415638,0,0,0.04248971193415638,38.19825102880658,0)" xlink:href="#aG"/><use transform="matrix(0.04248971193415638,0,0,0.04248971193415638,45.84639917695473,0)" xlink:href="#am"/><use transform="matrix(0.04248971193415638,0,0,0.04248971193415638,54.344341563786,0)" xlink:href="#aI"/></g><path fill="#b2b2b2" d="M32 76v-337h29V76H32" id="aJ"/><use transform="matrix(0.04248971193415638,0,0,0.04248971193415638,0,0)" xlink:href="#aJ" id="j"/><path fill="#b2b2b2" d="M240 0l2-218c-23 76-54 145-80 218h-23L58-218 59 0H30v-248h44l77 211c21-75 51-140 76-211h43V0h-30" id="aK"/><path fill="#b2b2b2" d="M141-36C126-15 110 5 73 4 37 3 15-17 15-53c-1-64 63-63 125-63 3-35-9-54-41-54-24 1-41 7-42 31l-33-3c5-37 33-52 76-52 45 0 72 20 72 64v82c-1 20 7 32 28 27v20c-31 9-61-2-59-35zM48-53c0 20 12 33 32 33 41-3 63-29 60-74-43 2-92-5-92 41" id="aL"/><path fill="#b2b2b2" d="M106-169C34-169 62-67 57 0H25v-261h32l-1 103c12-21 28-36 61-36 89 0 53 116 60 194h-32v-121c2-32-8-49-39-48" id="aM"/><g id="k"><use transform="matrix(0.04248971193415638,0,0,0.04248971193415638,0,0)" xlink:href="#aK"/><use transform="matrix(0.04248971193415638,0,0,0.04248971193415638,12.704423868312757,0)" xlink:href="#aL"/><use transform="matrix(0.04248971193415638,0,0,0.04248971193415638,21.20236625514403,0)" xlink:href="#aE"/><use transform="matrix(0.04248971193415638,0,0,0.04248971193415638,26.25864197530864,0)" xlink:href="#aG"/><use transform="matrix(0.04248971193415638,0,0,0.04248971193415638,33.90679012345679,0)" xlink:href="#aM"/></g><path fill="#b2b2b2" d="M101-251c82-7 93 87 43 132L82-64C71-53 59-42 53-27h129V0H18c2-99 128-94 128-182 0-28-16-43-45-43s-46 15-49 41l-32-3c6-41 34-60 81-64" id="aN"/><path fill="#b2b2b2" d="M99-251c64 0 84 50 84 122C183-37 130 33 47-8c-14-7-20-23-25-40l30-5c6 39 69 39 84 7 9-19 16-44 16-74-10 22-31 35-62 35-49 0-73-33-73-83 0-54 28-83 82-83zm-1 141c31-1 51-18 51-49 0-36-14-67-51-67-34 0-49 23-49 58 0 34 15 58 49 58" id="aO"/><g id="l"><use transform="matrix(0.04248971193415638,0,0,0.04248971193415638,0,0)" xlink:href="#aN"/><use transform="matrix(0.04248971193415638,0,0,0.04248971193415638,8.497942386831275,0)" xlink:href="#aO"/><use transform="matrix(0.04248971193415638,0,0,0.04248971193415638,16.99588477366255,0)" xlink:href="#as"/></g><path fill="#b2b2b2" d="M101-251c68 0 85 55 85 127S166 4 100 4C33 4 14-52 14-124c0-73 17-127 87-127zm-1 229c47 0 54-49 54-102s-4-102-53-102c-51 0-55 48-55 102 0 53 5 102 54 102" id="aP"/><g id="m"><use transform="matrix(0.04248971193415638,0,0,0.04248971193415638,0,0)" xlink:href="#aN"/><use transform="matrix(0.04248971193415638,0,0,0.04248971193415638,8.497942386831275,0)" xlink:href="#aP"/><use transform="matrix(0.04248971193415638,0,0,0.04248971193415638,16.99588477366255,0)" xlink:href="#aN"/><use transform="matrix(0.04248971193415638,0,0,0.04248971193415638,25.493827160493822,0)" xlink:href="#aP"/></g><path fill="#333" d="M232-93c-1 65-40 97-104 97C67 4 28-28 28-90v-158h33c8 89-33 224 67 224 102 0 64-133 71-224h33v155" id="aQ"/><path fill="#333" d="M135-143c-3-34-86-38-87 0 15 53 115 12 119 90S17 21 10-45l28-5c4 36 97 45 98 0-10-56-113-15-118-90-4-57 82-63 122-42 12 7 21 19 24 35" id="aR"/><path fill="#333" d="M100-194c63 0 86 42 84 106H49c0 40 14 67 53 68 26 1 43-12 49-29l28 8c-11 28-37 45-77 45C44 4 14-33 15-96c1-61 26-98 85-98zm52 81c6-60-76-77-97-28-3 7-6 17-6 28h103" id="aS"/><path fill="#333" d="M114-163C36-179 61-72 57 0H25l-1-190h30c1 12-1 29 2 39 6-27 23-49 58-41v29" id="aT"/><g id="n"><use transform="matrix(0.05,0,0,0.05,0,0)" xlink:href="#aQ"/><use transform="matrix(0.05,0,0,0.05,12.950000000000001,0)" xlink:href="#aR"/><use transform="matrix(0.05,0,0,0.05,21.950000000000003,0)" xlink:href="#aS"/><use transform="matrix(0.05,0,0,0.05,31.950000000000003,0)" xlink:href="#aT"/></g><path d="M143 4C61 4 22-44 18-125c-5-107 100-154 193-111 17 8 29 25 37 43l-32 9c-13-25-37-40-76-40-61 0-88 39-88 99 0 61 29 100 91 101 35 0 62-11 79-27v-45h-74v-28h105v86C228-13 192 4 143 4" id="aU"/><path d="M100-194c62-1 85 37 85 99 1 63-27 99-86 99S16-35 15-95c0-66 28-99 85-99zM99-20c44 1 53-31 53-75 0-43-8-75-51-75s-53 32-53 75 10 74 51 75" id="aV"/><path d="M141-36C126-15 110 5 73 4 37 3 15-17 15-53c-1-64 63-63 125-63 3-35-9-54-41-54-24 1-41 7-42 31l-33-3c5-37 33-52 76-52 45 0 72 20 72 64v82c-1 20 7 32 28 27v20c-31 9-61-2-59-35zM48-53c0 20 12 33 32 33 41-3 63-29 60-74-43 2-92-5-92 41" id="aW"/><path d="M24 0v-261h32V0H24" id="aX"/><path d="M135-143c-3-34-86-38-87 0 15 53 115 12 119 90S17 21 10-45l28-5c4 36 97 45 98 0-10-56-113-15-118-90-4-57 82-63 122-42 12 7 21 19 24 35" id="aY"/><path d="M137 0h-34L2-248h35l83 218 83-218h36" id="aZ"/><path d="M24-231v-30h32v30H24zM24 0v-190h32V0H24" id="ba"/><path d="M100-194c63 0 86 42 84 106H49c0 40 14 67 53 68 26 1 43-12 49-29l28 8c-11 28-37 45-77 45C44 4 14-33 15-96c1-61 26-98 85-98zm52 81c6-60-76-77-97-28-3 7-6 17-6 28h103" id="bb"/><path d="M206 0h-36l-40-164L89 0H53L-1-190h32L70-26l43-164h34l41 164 42-164h31" id="bc"/><g id="o"><use transform="matrix(0.05,0,0,0.05,0,0)" xlink:href="#aU"/><use transform="matrix(0.05,0,0,0.05,14,0)" xlink:href="#aV"/><use transform="matrix(0.05,0,0,0.05,24,0)" xlink:href="#aW"/><use transform="matrix(0.05,0,0,0.05,34,0)" xlink:href="#aX"/><use transform="matrix(0.05,0,0,0.05,37.95,0)" xlink:href="#aY"/><use transform="matrix(0.05,0,0,0.05,46.95,0)" xlink:href="#aZ"/><use transform="matrix(0.05,0,0,0.05,58.6,0)" xlink:href="#ba"/><use transform="matrix(0.05,0,0,0.05,62.550000000000004,0)" xlink:href="#bb"/><use transform="matrix(0.05,0,0,0.05,72.55000000000001,0)" xlink:href="#bc"/><path d="M-.9 1.25h87.3v1.32H-.9z"/></g><path d="M30-248c87 1 191-15 191 75 0 78-77 80-158 76V0H30v-248zm33 125c57 0 124 11 124-50 0-59-68-47-124-48v98" id="bd"/><path d="M179-190L93 31C79 59 56 82 12 73V49c39 6 53-20 64-50L1-190h34L92-34l54-156h33" id="be"/><path d="M210-169c-67 3-38 105-44 169h-31v-121c0-29-5-50-35-48C34-165 62-65 56 0H25l-1-190h30c1 10-1 24 2 32 10-44 99-50 107 0 11-21 27-35 58-36 85-2 47 119 55 194h-31v-121c0-29-5-49-35-48" id="bf"/><path d="M117-194c89-4 53 116 60 194h-32v-121c0-31-8-49-39-48C34-167 62-67 57 0H25l-1-190h30c1 10-1 24 2 32 11-22 29-35 61-36" id="bg"/><path d="M59-47c-2 24 18 29 38 22v24C64 9 27 4 27-40v-127H5v-23h24l9-43h21v43h35v23H59v120" id="bh"/><g id="p"><use transform="matrix(0.05,0,0,0.05,0,0)" xlink:href="#bd"/><use transform="matrix(0.05,0,0,0.05,12,0)" xlink:href="#aW"/><use transform="matrix(0.05,0,0,0.05,22,0)" xlink:href="#be"/><use transform="matrix(0.05,0,0,0.05,31,0)" xlink:href="#bf"/><use transform="matrix(0.05,0,0,0.05,45.95,0)" xlink:href="#bb"/><use transform="matrix(0.05,0,0,0.05,55.95,0)" xlink:href="#bg"/><use transform="matrix(0.05,0,0,0.05,65.95,0)" xlink:href="#bh"/><use transform="matrix(0.05,0,0,0.05,70.95,0)" xlink:href="#aY"/><path d="M-.9 1.25h81.75v1.32H-.9z"/></g><path d="M212-179c-10-28-35-45-73-45-59 0-87 40-87 99 0 60 29 101 89 101 43 0 62-24 78-52l27 14C228-24 195 4 139 4 59 4 22-46 18-125c-6-104 99-153 187-111 19 9 31 26 39 46" id="bi"/><path d="M114-163C36-179 61-72 57 0H25l-1-190h30c1 12-1 29 2 39 6-27 23-49 58-41v29" id="bj"/><g id="q"><use transform="matrix(0.05,0,0,0.05,0,0)" xlink:href="#bi"/><use transform="matrix(0.05,0,0,0.05,12.950000000000001,0)" xlink:href="#aV"/><use transform="matrix(0.05,0,0,0.05,22.950000000000003,0)" xlink:href="#bg"/><use transform="matrix(0.05,0,0,0.05,32.95,0)" xlink:href="#bh"/><use transform="matrix(0.05,0,0,0.05,37.95,0)" xlink:href="#bj"/><use transform="matrix(0.05,0,0,0.05,43.900000000000006,0)" xlink:href="#aV"/><use transform="matrix(0.05,0,0,0.05,53.900000000000006,0)" xlink:href="#aX"/><use transform="matrix(0.05,0,0,0.05,57.85,0)" xlink:href="#aX"/><use transform="matrix(0.05,0,0,0.05,61.80000000000001,0)" xlink:href="#bb"/><use transform="matrix(0.05,0,0,0.05,71.80000000000001,0)" xlink:href="#bj"/><path d="M-.9 1.25h79.55v1.32H-.9z"/></g><g id="r"><use transform="matrix(0.05,0,0,0.05,0,0)" xlink:href="#bd"/><use transform="matrix(0.05,0,0,0.05,12,0)" xlink:href="#aW"/><use transform="matrix(0.05,0,0,0.05,22,0)" xlink:href="#be"/><use transform="matrix(0.05,0,0,0.05,31,0)" xlink:href="#bd"/><use transform="matrix(0.05,0,0,0.05,43,0)" xlink:href="#aW"/><use transform="matrix(0.05,0,0,0.05,53,0)" xlink:href="#aX"/><path d="M-.9 1.25h63.75v1.32H-.9z"/></g><path d="M205 0l-28-72H64L36 0H1l101-248h38L239 0h-34zm-38-99l-47-123c-12 45-31 82-46 123h93" id="bk"/><path d="M33 0v-248h34V0H33" id="bl"/><g id="s"><use transform="matrix(0.05,0,0,0.05,0,0)" xlink:href="#bk"/><use transform="matrix(0.05,0,0,0.05,12,0)" xlink:href="#bd"/><use transform="matrix(0.05,0,0,0.05,24,0)" xlink:href="#bl"/><path d="M-.9 1.25h30.8v1.32H-.9z"/></g><path d="M177-190C167-65 218 103 67 71c-23-6-38-20-44-43l32-5c15 47 100 32 89-28v-30C133-14 115 1 83 1 29 1 15-40 15-95c0-56 16-97 71-98 29-1 48 16 59 35 1-10 0-23 2-32h30zM94-22c36 0 50-32 50-73 0-42-14-75-50-75-39 0-46 34-46 75s6 73 46 73" id="bm"/><path d="M185-189c-5-48-123-54-124 2 14 75 158 14 163 119 3 78-121 87-175 55-17-10-28-26-33-46l33-7c5 56 141 63 141-1 0-78-155-14-162-118-5-82 145-84 179-34 5 7 8 16 11 25" id="bn"/><path d="M140-251c81 0 123 46 123 126C263-53 228-8 163 1c7 30 30 48 69 40v23c-55 16-95-15-103-61C56-3 17-48 17-125c0-80 42-126 123-126zm0 227c63 0 89-41 89-101s-29-99-89-99c-61 0-89 39-89 99S79-25 140-24" id="bo"/><path d="M30 0v-248h33v221h125V0H30" id="bp"/><g id="t"><use transform="matrix(0.05,0,0,0.05,0,0)" xlink:href="#bd"/><use transform="matrix(0.05,0,0,0.05,12,0)" xlink:href="#aV"/><use transform="matrix(0.05,0,0,0.05,22,0)" xlink:href="#aY"/><use transform="matrix(0.05,0,0,0.05,31,0)" xlink:href="#bh"/><use transform="matrix(0.05,0,0,0.05,36,0)" xlink:href="#bm"/><use transform="matrix(0.05,0,0,0.05,46,0)" xlink:href="#bj"/><use transform="matrix(0.05,0,0,0.05,51.95,0)" xlink:href="#bb"/><use transform="matrix(0.05,0,0,0.05,61.95,0)" xlink:href="#bn"/><use transform="matrix(0.05,0,0,0.05,73.95,0)" xlink:href="#bo"/><use transform="matrix(0.05,0,0,0.05,87.95,0)" xlink:href="#bp"/><path d="M-.9 1.25h99.1v1.32H-.9z"/></g><path d="M30-248c118-7 216 8 213 122C240-48 200 0 122 0H30v-248zM63-27c89 8 146-16 146-99s-60-101-146-95v194" id="bq"/><path d="M115-194c53 0 69 39 70 98 0 66-23 100-70 100C84 3 66-7 56-30L54 0H23l1-261h32v101c10-23 28-34 59-34zm-8 174c40 0 45-34 45-75 0-40-5-75-45-74-42 0-51 32-51 76 0 43 10 73 51 73" id="br"/><g id="u"><use transform="matrix(0.05,0,0,0.05,0,0)" xlink:href="#bq"/><use transform="matrix(0.05,0,0,0.05,12.950000000000001,0)" xlink:href="#aW"/><use transform="matrix(0.05,0,0,0.05,22.950000000000003,0)" xlink:href="#bh"/><use transform="matrix(0.05,0,0,0.05,27.950000000000003,0)" xlink:href="#aW"/><use transform="matrix(0.05,0,0,0.05,37.95,0)" xlink:href="#br"/><use transform="matrix(0.05,0,0,0.05,47.95,0)" xlink:href="#aW"/><use transform="matrix(0.05,0,0,0.05,57.95,0)" xlink:href="#aY"/><use transform="matrix(0.05,0,0,0.05,66.95,0)" xlink:href="#bb"/><path d="M-.9 1.25h78.75v1.32H-.9z"/></g><path fill="#333" d="M137 0h-34L2-248h35l83 218 83-218h36" id="bs"/><path fill="#333" d="M24-231v-30h32v30H24zM24 0v-190h32V0H24" id="bt"/><path fill="#333" d="M206 0h-36l-40-164L89 0H53L-1-190h32L70-26l43-164h34l41 164 42-164h31" id="bu"/><g id="v"><use transform="matrix(0.05,0,0,0.05,0,0)" xlink:href="#bs"/><use transform="matrix(0.05,0,0,0.05,11.65,0)" xlink:href="#bt"/><use transform="matrix(0.05,0,0,0.05,15.600000000000001,0)" xlink:href="#aS"/><use transform="matrix(0.05,0,0,0.05,25.6,0)" xlink:href="#bu"/></g><path fill="#333" d="M143 4C61 4 22-44 18-125c-5-107 100-154 193-111 17 8 29 25 37 43l-32 9c-13-25-37-40-76-40-61 0-88 39-88 99 0 61 29 100 91 101 35 0 62-11 79-27v-45h-74v-28h105v86C228-13 192 4 143 4" id="bv"/><path fill="#333" d="M100-194c62-1 85 37 85 99 1 63-27 99-86 99S16-35 15-95c0-66 28-99 85-99zM99-20c44 1 53-31 53-75 0-43-8-75-51-75s-53 32-53 75 10 74 51 75" id="bw"/><path fill="#333" d="M141-36C126-15 110 5 73 4 37 3 15-17 15-53c-1-64 63-63 125-63 3-35-9-54-41-54-24 1-41 7-42 31l-33-3c5-37 33-52 76-52 45 0 72 20 72 64v82c-1 20 7 32 28 27v20c-31 9-61-2-59-35zM48-53c0 20 12 33 32 33 41-3 63-29 60-74-43 2-92-5-92 41" id="bx"/><path fill="#333" d="M24 0v-261h32V0H24" id="by"/><g id="w"><use transform="matrix(0.05,0,0,0.05,0,0)" xlink:href="#bv"/><use transform="matrix(0.05,0,0,0.05,14,0)" xlink:href="#bw"/><use transform="matrix(0.05,0,0,0.05,24,0)" xlink:href="#bx"/><use transform="matrix(0.05,0,0,0.05,34,0)" xlink:href="#by"/></g><g id="x"><use transform="matrix(0.05,0,0,0.05,0,0)" xlink:href="#bw"/><use transform="matrix(0.05,0,0,0.05,10,0)" xlink:href="#aT"/></g><path fill="#333" d="M63-220v92h138v28H63V0H30v-248h175v28H63" id="bz"/><path fill="#333" d="M84 4C-5 8 30-112 23-190h32v120c0 31 7 50 39 49 72-2 45-101 50-169h31l1 190h-30c-1-10 1-25-2-33-11 22-28 36-60 37" id="bA"/><path fill="#333" d="M117-194c89-4 53 116 60 194h-32v-121c0-31-8-49-39-48C34-167 62-67 57 0H25l-1-190h30c1 10-1 24 2 32 11-22 29-35 61-36" id="bB"/><path fill="#333" d="M85-194c31 0 48 13 60 33l-1-100h32l1 261h-30c-2-10 0-23-3-31C134-8 116 4 85 4 32 4 16-35 15-94c0-66 23-100 70-100zm9 24c-40 0-46 34-46 75 0 40 6 74 45 74 42 0 51-32 51-76 0-42-9-74-50-73" id="bC"/><g id="y"><use transform="matrix(0.05,0,0,0.05,0,0)" xlink:href="#bz"/><use transform="matrix(0.05,0,0,0.05,10.950000000000001,0)" xlink:href="#bA"/><use transform="matrix(0.05,0,0,0.05,20.950000000000003,0)" xlink:href="#bB"/><use transform="matrix(0.05,0,0,0.05,30.950000000000003,0)" xlink:href="#bC"/><use transform="matrix(0.05,0,0,0.05,40.95,0)" xlink:href="#bx"/><use transform="matrix(0.05,0,0,0.05,50.95,0)" xlink:href="#aT"/><use transform="matrix(0.05,0,0,0.05,56.900000000000006,0)" xlink:href="#bx"/><use transform="matrix(0.05,0,0,0.05,66.9,0)" xlink:href="#bt"/><use transform="matrix(0.05,0,0,0.05,70.85000000000001,0)" xlink:href="#aR"/><use transform="matrix(0.05,0,0,0.05,79.85000000000001,0)" xlink:href="#aS"/><use transform="matrix(0.05,0,0,0.05,89.85000000000001,0)" xlink:href="#aT"/></g><g id="z"><use transform="matrix(0.05,0,0,0.05,0,0)" xlink:href="#aU"/><use transform="matrix(0.05,0,0,0.05,14,0)" xlink:href="#aV"/><use transform="matrix(0.05,0,0,0.05,24,0)" xlink:href="#aW"/><use transform="matrix(0.05,0,0,0.05,34,0)" xlink:href="#aX"/><use transform="matrix(0.05,0,0,0.05,37.95,0)" xlink:href="#aY"/><use transform="matrix(0.05,0,0,0.05,46.95,0)" xlink:href="#bi"/><use transform="matrix(0.05,0,0,0.05,59.900000000000006,0)" xlink:href="#aV"/><use transform="matrix(0.05,0,0,0.05,69.9,0)" xlink:href="#bg"/><use transform="matrix(0.05,0,0,0.05,79.9,0)" xlink:href="#bh"/><use transform="matrix(0.05,0,0,0.05,84.9,0)" xlink:href="#bj"/><use transform="matrix(0.05,0,0,0.05,90.85000000000001,0)" xlink:href="#aV"/><use transform="matrix(0.05,0,0,0.05,100.85000000000001,0)" xlink:href="#aX"/><use transform="matrix(0.05,0,0,0.05,104.80000000000001,0)" xlink:href="#aX"/><use transform="matrix(0.05,0,0,0.05,108.75,0)" xlink:href="#bb"/><use transform="matrix(0.05,0,0,0.05,118.75,0)" xlink:href="#bj"/><path d="M-.9 1.25h126.5v1.32H-.9z"/></g><path fill="#333" d="M177-190C167-65 218 103 67 71c-23-6-38-20-44-43l32-5c15 47 100 32 89-28v-30C133-14 115 1 83 1 29 1 15-40 15-95c0-56 16-97 71-98 29-1 48 16 59 35 1-10 0-23 2-32h30zM94-22c36 0 50-32 50-73 0-42-14-75-50-75-39 0-46 34-46 75s6 73 46 73" id="bD"/><path fill="#333" d="M59-47c-2 24 18 29 38 22v24C64 9 27 4 27-40v-127H5v-23h24l9-43h21v43h35v23H59v120" id="bE"/><path fill="#333" d="M-5 72V49h209v23H-5" id="bF"/><path fill="#333" d="M87 75C49 33 22-17 22-94c0-76 28-126 65-167h31c-38 41-64 92-64 168S80 34 118 75H87" id="bG"/><path fill="#333" d="M33-261c38 41 65 92 65 168S71 34 33 75H2C39 34 66-17 66-93S39-220 2-261h31" id="bH"/><g id="A"><use transform="matrix(0.05,0,0,0.05,0,0)" xlink:href="#bD"/><use transform="matrix(0.05,0,0,0.05,10,0)" xlink:href="#aS"/><use transform="matrix(0.05,0,0,0.05,20,0)" xlink:href="#bE"/><use transform="matrix(0.05,0,0,0.05,25,0)" xlink:href="#bF"/><use transform="matrix(0.05,0,0,0.05,35,0)" xlink:href="#bD"/><use transform="matrix(0.05,0,0,0.05,45,0)" xlink:href="#bw"/><use transform="matrix(0.05,0,0,0.05,55,0)" xlink:href="#bx"/><use transform="matrix(0.05,0,0,0.05,65,0)" xlink:href="#by"/><use transform="matrix(0.05,0,0,0.05,68.95,0)" xlink:href="#bG"/><use transform="matrix(0.05,0,0,0.05,74.9,0)" xlink:href="#bH"/></g><path fill="#333" d="M0 4l72-265h28L28 4H0" id="bI"/><path fill="#333" d="M108 0H70L1-190h34L89-25l56-165h34" id="bJ"/><g id="B"><use transform="matrix(0.05,0,0,0.05,0,0)" xlink:href="#bI"/><use transform="matrix(0.05,0,0,0.05,5,0)" xlink:href="#bJ"/><use transform="matrix(0.05,0,0,0.05,14,0)" xlink:href="#bt"/><use transform="matrix(0.05,0,0,0.05,17.95,0)" xlink:href="#aS"/><use transform="matrix(0.05,0,0,0.05,27.950000000000003,0)" xlink:href="#bu"/><use transform="matrix(0.05,0,0,0.05,40.9,0)" xlink:href="#aR"/><use transform="matrix(0.05,0,0,0.05,49.9,0)" xlink:href="#bI"/><use transform="matrix(0.05,0,0,0.05,54.900000000000006,0)" xlink:href="#bD"/><use transform="matrix(0.05,0,0,0.05,64.9,0)" xlink:href="#bw"/><use transform="matrix(0.05,0,0,0.05,74.9,0)" xlink:href="#bx"/><use transform="matrix(0.05,0,0,0.05,84.9,0)" xlink:href="#by"/><use transform="matrix(0.05,0,0,0.05,88.85000000000001,0)" xlink:href="#aR"/></g><path fill="#333" d="M185-189c-5-48-123-54-124 2 14 75 158 14 163 119 3 78-121 87-175 55-17-10-28-26-33-46l33-7c5 56 141 63 141-1 0-78-155-14-162-118-5-82 145-84 179-34 5 7 8 16 11 25" id="bK"/><path fill="#333" d="M106-169C34-169 62-67 57 0H25v-261h32l-1 103c12-21 28-36 61-36 89 0 53 116 60 194h-32v-121c2-32-8-49-39-48" id="bL"/><g id="C"><use transform="matrix(0.05,0,0,0.05,0,0)" xlink:href="#bK"/><use transform="matrix(0.05,0,0,0.05,12,0)" xlink:href="#bL"/><use transform="matrix(0.05,0,0,0.05,22,0)" xlink:href="#bw"/><use transform="matrix(0.05,0,0,0.05,32,0)" xlink:href="#bu"/></g><path fill="#333" d="M33 0v-248h34V0H33" id="bM"/><path fill="#333" d="M101-234c-31-9-42 10-38 44h38v23H63V0H32v-167H5v-23h27c-7-52 17-82 69-68v24" id="bN"/><path fill="#333" d="M210-169c-67 3-38 105-44 169h-31v-121c0-29-5-50-35-48C34-165 62-65 56 0H25l-1-190h30c1 10-1 24 2 32 10-44 99-50 107 0 11-21 27-35 58-36 85-2 47 119 55 194h-31v-121c0-29-5-49-35-48" id="bO"/><g id="D"><use transform="matrix(0.05,0,0,0.05,0,0)" xlink:href="#bM"/><use transform="matrix(0.05,0,0,0.05,5,0)" xlink:href="#bB"/><use transform="matrix(0.05,0,0,0.05,15,0)" xlink:href="#bN"/><use transform="matrix(0.05,0,0,0.05,20,0)" xlink:href="#bw"/><use transform="matrix(0.05,0,0,0.05,30,0)" xlink:href="#aT"/><use transform="matrix(0.05,0,0,0.05,35.95,0)" xlink:href="#bO"/><use transform="matrix(0.05,0,0,0.05,50.900000000000006,0)" xlink:href="#bx"/><use transform="matrix(0.05,0,0,0.05,60.900000000000006,0)" xlink:href="#bE"/><use transform="matrix(0.05,0,0,0.05,65.9,0)" xlink:href="#bt"/><use transform="matrix(0.05,0,0,0.05,69.85000000000001,0)" xlink:href="#bw"/><use transform="matrix(0.05,0,0,0.05,79.85000000000001,0)" xlink:href="#bB"/></g><path fill="#333" d="M160-131c35 5 61 23 61 61C221 17 115-2 30 0v-248c76 3 177-17 177 60 0 33-19 50-47 57zm-97-11c50-1 110 9 110-42 0-47-63-36-110-37v79zm0 115c55-2 124 14 124-45 0-56-70-42-124-44v89" id="bP"/><g id="E"><use transform="matrix(0.05,0,0,0.05,0,0)" xlink:href="#bP"/><use transform="matrix(0.05,0,0,0.05,12,0)" xlink:href="#aS"/><use transform="matrix(0.05,0,0,0.05,22,0)" xlink:href="#bD"/><use transform="matrix(0.05,0,0,0.05,32,0)" xlink:href="#bt"/><use transform="matrix(0.05,0,0,0.05,35.95,0)" xlink:href="#bB"/></g><path fill="#333" d="M30-248c87 1 191-15 191 75 0 78-77 80-158 76V0H30v-248zm33 125c57 0 124 11 124-50 0-59-68-47-124-48v98" id="bQ"/><path fill="#333" d="M179-190L93 31C79 59 56 82 12 73V49c39 6 53-20 64-50L1-190h34L92-34l54-156h33" id="bR"/><g id="F"><use transform="matrix(0.05,0,0,0.05,0,0)" xlink:href="#bQ"/><use transform="matrix(0.05,0,0,0.05,12,0)" xlink:href="#bx"/><use transform="matrix(0.05,0,0,0.05,22,0)" xlink:href="#bR"/><use transform="matrix(0.05,0,0,0.05,31,0)" xlink:href="#bO"/><use transform="matrix(0.05,0,0,0.05,45.95,0)" xlink:href="#aS"/><use transform="matrix(0.05,0,0,0.05,55.95,0)" xlink:href="#bB"/><use transform="matrix(0.05,0,0,0.05,65.95,0)" xlink:href="#bE"/></g><path fill="#333" d="M115-194c53 0 69 39 70 98 0 66-23 100-70 100C84 3 66-7 56-30L54 0H23l1-261h32v101c10-23 28-34 59-34zm-8 174c40 0 45-34 45-75 0-40-5-75-45-74-42 0-51 32-51 76 0 43 10 73 51 73" id="bS"/><path fill="#333" d="M115-194c55 1 70 41 70 98S169 2 115 4C84 4 66-9 55-30l1 105H24l-1-265h31l2 30c10-21 28-34 59-34zm-8 174c40 0 45-34 45-75s-6-73-45-74c-42 0-51 32-51 76 0 43 10 73 51 73" id="bT"/><g id="G"><use transform="matrix(0.05,0,0,0.05,0,0)" xlink:href="#bS"/><use transform="matrix(0.05,0,0,0.05,10,0)" xlink:href="#aS"/><use transform="matrix(0.05,0,0,0.05,20,0)" xlink:href="#bD"/><use transform="matrix(0.05,0,0,0.05,30,0)" xlink:href="#bt"/><use transform="matrix(0.05,0,0,0.05,33.95,0)" xlink:href="#bB"/><use transform="matrix(0.05,0,0,0.05,43.95,0)" xlink:href="#bF"/><use transform="matrix(0.05,0,0,0.05,53.95,0)" xlink:href="#bD"/><use transform="matrix(0.05,0,0,0.05,63.95,0)" xlink:href="#bw"/><use transform="matrix(0.05,0,0,0.05,73.95,0)" xlink:href="#bx"/><use transform="matrix(0.05,0,0,0.05,83.95,0)" xlink:href="#by"/><use transform="matrix(0.05,0,0,0.05,87.9,0)" xlink:href="#bF"/><use transform="matrix(0.05,0,0,0.05,97.9,0)" xlink:href="#bT"/><use transform="matrix(0.05,0,0,0.05,107.9,0)" xlink:href="#bx"/><use transform="matrix(0.05,0,0,0.05,117.9,0)" xlink:href="#bR"/><use transform="matrix(0.05,0,0,0.05,126.9,0)" xlink:href="#bO"/><use transform="matrix(0.05,0,0,0.05,141.85,0)" xlink:href="#aS"/><use transform="matrix(0.05,0,0,0.05,151.85,0)" xlink:href="#bB"/><use transform="matrix(0.05,0,0,0.05,161.85,0)" xlink:href="#bE"/><use transform="matrix(0.05,0,0,0.05,166.85,0)" xlink:href="#bG"/><use transform="matrix(0.05,0,0,0.05,172.79999999999998,0)" xlink:href="#bH"/></g><path fill="#333" d="M145-31C134-9 116 4 85 4 32 4 16-35 15-94c0-59 17-99 70-100 32-1 48 14 60 33 0-11-1-24 2-32h30l-1 268h-32zM93-21c41 0 51-33 51-76s-8-73-50-73c-40 0-46 35-46 75s5 74 45 74" id="bU"/><g id="H"><use transform="matrix(0.05,0,0,0.05,0,0)" xlink:href="#aT"/><use transform="matrix(0.05,0,0,0.05,5.95,0)" xlink:href="#aS"/><use transform="matrix(0.05,0,0,0.05,15.949999999999998,0)" xlink:href="#bU"/><use transform="matrix(0.05,0,0,0.05,25.950000000000003,0)" xlink:href="#bA"/><use transform="matrix(0.05,0,0,0.05,35.95,0)" xlink:href="#aS"/><use transform="matrix(0.05,0,0,0.05,45.95,0)" xlink:href="#aR"/><use transform="matrix(0.05,0,0,0.05,54.95,0)" xlink:href="#bE"/><use transform="matrix(0.05,0,0,0.05,59.95,0)" xlink:href="#bF"/><use transform="matrix(0.05,0,0,0.05,69.95,0)" xlink:href="#bT"/><use transform="matrix(0.05,0,0,0.05,79.95,0)" xlink:href="#bx"/><use transform="matrix(0.05,0,0,0.05,89.95,0)" xlink:href="#bR"/><use transform="matrix(0.05,0,0,0.05,98.95,0)" xlink:href="#bO"/><use transform="matrix(0.05,0,0,0.05,113.9,0)" xlink:href="#aS"/><use transform="matrix(0.05,0,0,0.05,123.9,0)" xlink:href="#bB"/><use transform="matrix(0.05,0,0,0.05,133.9,0)" xlink:href="#bE"/><use transform="matrix(0.05,0,0,0.05,138.9,0)" xlink:href="#bG"/><use transform="matrix(0.05,0,0,0.05,144.85,0)" xlink:href="#bH"/></g><g id="I"><use transform="matrix(0.05,0,0,0.05,0,0)" xlink:href="#bx"/><use transform="matrix(0.05,0,0,0.05,10,0)" xlink:href="#bA"/><use transform="matrix(0.05,0,0,0.05,20,0)" xlink:href="#bE"/><use transform="matrix(0.05,0,0,0.05,25,0)" xlink:href="#bL"/><use transform="matrix(0.05,0,0,0.05,35,0)" xlink:href="#bF"/><use transform="matrix(0.05,0,0,0.05,45,0)" xlink:href="#bT"/><use transform="matrix(0.05,0,0,0.05,55,0)" xlink:href="#bT"/><use transform="matrix(0.05,0,0,0.05,65,0)" xlink:href="#bF"/><use transform="matrix(0.05,0,0,0.05,75,0)" xlink:href="#bA"/><use transform="matrix(0.05,0,0,0.05,85,0)" xlink:href="#aR"/><use transform="matrix(0.05,0,0,0.05,94,0)" xlink:href="#aS"/><use transform="matrix(0.05,0,0,0.05,104,0)" xlink:href="#aT"/><use transform="matrix(0.05,0,0,0.05,109.95,0)" xlink:href="#bG"/><use transform="matrix(0.05,0,0,0.05,115.9,0)" xlink:href="#bH"/></g><path fill="#333" d="M96-169c-40 0-48 33-48 73s9 75 48 75c24 0 41-14 43-38l32 2c-6 37-31 61-74 61-59 0-76-41-82-99-10-93 101-131 147-64 4 7 5 14 7 22l-32 3c-4-21-16-35-41-35" id="bV"/><g id="J"><use transform="matrix(0.05,0,0,0.05,0,0)" xlink:href="#aT"/><use transform="matrix(0.05,0,0,0.05,5.95,0)" xlink:href="#aS"/><use transform="matrix(0.05,0,0,0.05,15.949999999999998,0)" xlink:href="#bV"/><use transform="matrix(0.05,0,0,0.05,24.95,0)" xlink:href="#bw"/><use transform="matrix(0.05,0,0,0.05,34.95,0)" xlink:href="#aT"/><use transform="matrix(0.05,0,0,0.05,40.900000000000006,0)" xlink:href="#bC"/><use transform="matrix(0.05,0,0,0.05,50.900000000000006,0)" xlink:href="#bF"/><use transform="matrix(0.05,0,0,0.05,60.900000000000006,0)" xlink:href="#bE"/><use transform="matrix(0.05,0,0,0.05,65.9,0)" xlink:href="#aT"/><use transform="matrix(0.05,0,0,0.05,71.85000000000001,0)" xlink:href="#bx"/><use transform="matrix(0.05,0,0,0.05,81.85000000000001,0)" xlink:href="#bB"/><use transform="matrix(0.05,0,0,0.05,91.85000000000001,0)" xlink:href="#aR"/><use transform="matrix(0.05,0,0,0.05,100.85000000000001,0)" xlink:href="#bx"/><use transform="matrix(0.05,0,0,0.05,110.85000000000001,0)" xlink:href="#bV"/><use transform="matrix(0.05,0,0,0.05,119.85000000000001,0)" xlink:href="#bE"/><use transform="matrix(0.05,0,0,0.05,124.85000000000001,0)" xlink:href="#bt"/><use transform="matrix(0.05,0,0,0.05,128.8,0)" xlink:href="#bw"/><use transform="matrix(0.05,0,0,0.05,138.8,0)" xlink:href="#bB"/><use transform="matrix(0.05,0,0,0.05,148.8,0)" xlink:href="#bE"/><use transform="matrix(0.05,0,0,0.05,153.8,0)" xlink:href="#bG"/><use transform="matrix(0.05,0,0,0.05,159.75,0)" xlink:href="#bH"/></g><g id="K"><use transform="matrix(0.05,0,0,0.05,0,0)" xlink:href="#bV"/><use transform="matrix(0.05,0,0,0.05,9,0)" xlink:href="#bw"/><use transform="matrix(0.05,0,0,0.05,19,0)" xlink:href="#bB"/><use transform="matrix(0.05,0,0,0.05,29,0)" xlink:href="#bN"/><use transform="matrix(0.05,0,0,0.05,34,0)" xlink:href="#bt"/><use transform="matrix(0.05,0,0,0.05,37.95,0)" xlink:href="#aT"/><use transform="matrix(0.05,0,0,0.05,43.900000000000006,0)" xlink:href="#bO"/><use transform="matrix(0.05,0,0,0.05,58.85,0)" xlink:href="#bF"/><use transform="matrix(0.05,0,0,0.05,68.85000000000001,0)" xlink:href="#bA"/><use transform="matrix(0.05,0,0,0.05,78.85000000000001,0)" xlink:href="#aR"/><use transform="matrix(0.05,0,0,0.05,87.85000000000001,0)" xlink:href="#aS"/><use transform="matrix(0.05,0,0,0.05,97.85000000000001,0)" xlink:href="#aT"/><use transform="matrix(0.05,0,0,0.05,103.80000000000001,0)" xlink:href="#bF"/><use transform="matrix(0.05,0,0,0.05,113.80000000000001,0)" xlink:href="#bt"/><use transform="matrix(0.05,0,0,0.05,117.75,0)" xlink:href="#bC"/><use transform="matrix(0.05,0,0,0.05,127.75,0)" xlink:href="#aS"/><use transform="matrix(0.05,0,0,0.05,137.75,0)" xlink:href="#bB"/><use transform="matrix(0.05,0,0,0.05,147.75,0)" xlink:href="#bE"/><use transform="matrix(0.05,0,0,0.05,152.75,0)" xlink:href="#bt"/><use transform="matrix(0.05,0,0,0.05,156.7,0)" xlink:href="#bE"/><use transform="matrix(0.05,0,0,0.05,161.7,0)" xlink:href="#bR"/><use transform="matrix(0.05,0,0,0.05,170.7,0)" xlink:href="#bG"/><use transform="matrix(0.05,0,0,0.05,176.64999999999998,0)" xlink:href="#bH"/></g><g id="L"><use transform="matrix(0.05,0,0,0.05,0,0)" xlink:href="#bV"/><use transform="matrix(0.05,0,0,0.05,9,0)" xlink:href="#bw"/><use transform="matrix(0.05,0,0,0.05,19,0)" xlink:href="#bB"/><use transform="matrix(0.05,0,0,0.05,29,0)" xlink:href="#bN"/><use transform="matrix(0.05,0,0,0.05,34,0)" xlink:href="#bt"/><use transform="matrix(0.05,0,0,0.05,37.95,0)" xlink:href="#aT"/><use transform="matrix(0.05,0,0,0.05,43.900000000000006,0)" xlink:href="#bO"/><use transform="matrix(0.05,0,0,0.05,58.85,0)" xlink:href="#bF"/><use transform="matrix(0.05,0,0,0.05,68.85000000000001,0)" xlink:href="#bA"/><use transform="matrix(0.05,0,0,0.05,78.85000000000001,0)" xlink:href="#aR"/><use transform="matrix(0.05,0,0,0.05,87.85000000000001,0)" xlink:href="#aS"/><use transform="matrix(0.05,0,0,0.05,97.85000000000001,0)" xlink:href="#aT"/><use transform="matrix(0.05,0,0,0.05,103.80000000000001,0)" xlink:href="#bF"/><use transform="matrix(0.05,0,0,0.05,113.80000000000001,0)" xlink:href="#bE"/><use transform="matrix(0.05,0,0,0.05,118.80000000000001,0)" xlink:href="#aT"/><use transform="matrix(0.05,0,0,0.05,124.75,0)" xlink:href="#bx"/><use transform="matrix(0.05,0,0,0.05,134.75,0)" xlink:href="#bB"/><use transform="matrix(0.05,0,0,0.05,144.75,0)" xlink:href="#aR"/><use transform="matrix(0.05,0,0,0.05,153.75,0)" xlink:href="#bx"/><use transform="matrix(0.05,0,0,0.05,163.75,0)" xlink:href="#bE"/><use transform="matrix(0.05,0,0,0.05,168.75,0)" xlink:href="#bt"/><use transform="matrix(0.05,0,0,0.05,172.7,0)" xlink:href="#bw"/><use transform="matrix(0.05,0,0,0.05,182.7,0)" xlink:href="#bB"/><use transform="matrix(0.05,0,0,0.05,192.7,0)" xlink:href="#bE"/><use transform="matrix(0.05,0,0,0.05,197.7,0)" xlink:href="#bG"/><use transform="matrix(0.05,0,0,0.05,203.64999999999998,0)" xlink:href="#bH"/></g><path fill="#333" d="M127-220V0H93v-220H8v-28h204v28h-85" id="bW"/><path fill="#333" d="M205 0l-28-72H64L36 0H1l101-248h38L239 0h-34zm-38-99l-47-123c-12 45-31 82-46 123h93" id="bX"/><g id="M"><use transform="matrix(0.05,0,0,0.05,0,0)" xlink:href="#bK"/><use transform="matrix(0.05,0,0,0.05,12,0)" xlink:href="#bW"/><use transform="matrix(0.05,0,0,0.05,21.6,0)" xlink:href="#bX"/><use transform="matrix(0.05,0,0,0.05,32.25,0)" xlink:href="#bW"/><use transform="matrix(0.05,0,0,0.05,43.2,0)" xlink:href="#aQ"/><use transform="matrix(0.05,0,0,0.05,56.150000000000006,0)" xlink:href="#bK"/></g><path fill="#333" d="M140-251c81 0 123 46 123 126C263-46 219 4 140 4 59 4 17-45 17-125s42-126 123-126zm0 227c63 0 89-41 89-101s-29-99-89-99c-61 0-89 39-89 99S79-25 140-24" id="bY"/><path fill="#333" d="M194 0L95-120 63-95V0H30v-248h33v124l119-124h40L117-140 236 0h-42" id="bZ"/><g id="N"><use transform="matrix(0.05,0,0,0.05,0,0)" xlink:href="#bY"/><use transform="matrix(0.05,0,0,0.05,14,0)" xlink:href="#bZ"/></g><path fill="#333" d="M143 0L79-87 56-68V0H24v-261h32v163l83-92h37l-77 82L181 0h-38" id="ca"/><g id="O"><use transform="matrix(0.05,0,0,0.05,0,0)" xlink:href="#bx"/><use transform="matrix(0.05,0,0,0.05,10,0)" xlink:href="#bV"/><use transform="matrix(0.05,0,0,0.05,19,0)" xlink:href="#ca"/><use transform="matrix(0.05,0,0,0.05,28,0)" xlink:href="#bF"/><use transform="matrix(0.05,0,0,0.05,38,0)" xlink:href="#aR"/><use transform="matrix(0.05,0,0,0.05,47,0)" xlink:href="#bA"/><use transform="matrix(0.05,0,0,0.05,57,0)" xlink:href="#bV"/><use transform="matrix(0.05,0,0,0.05,66,0)" xlink:href="#bV"/><use transform="matrix(0.05,0,0,0.05,75,0)" xlink:href="#aS"/><use transform="matrix(0.05,0,0,0.05,85,0)" xlink:href="#aR"/><use transform="matrix(0.05,0,0,0.05,94,0)" xlink:href="#aR"/><use transform="matrix(0.05,0,0,0.05,103,0)" xlink:href="#bN"/><use transform="matrix(0.05,0,0,0.05,108,0)" xlink:href="#bA"/><use transform="matrix(0.05,0,0,0.05,118,0)" xlink:href="#by"/><use transform="matrix(0.05,0,0,0.05,121.95,0)" xlink:href="#bF"/><use transform="matrix(0.05,0,0,0.05,131.95,0)" xlink:href="#bE"/><use transform="matrix(0.05,0,0,0.05,136.95,0)" xlink:href="#aT"/><use transform="matrix(0.05,0,0,0.05,142.89999999999998,0)" xlink:href="#bx"/><use transform="matrix(0.05,0,0,0.05,152.89999999999998,0)" xlink:href="#bB"/><use transform="matrix(0.05,0,0,0.05,162.89999999999998,0)" xlink:href="#aR"/><use transform="matrix(0.05,0,0,0.05,171.89999999999998,0)" xlink:href="#bx"/><use transform="matrix(0.05,0,0,0.05,181.89999999999998,0)" xlink:href="#bV"/><use transform="matrix(0.05,0,0,0.05,190.89999999999998,0)" xlink:href="#bE"/><use transform="matrix(0.05,0,0,0.05,195.89999999999998,0)" xlink:href="#bt"/><use transform="matrix(0.05,0,0,0.05,199.84999999999997,0)" xlink:href="#bw"/><use transform="matrix(0.05,0,0,0.05,209.84999999999997,0)" xlink:href="#bB"/><use transform="matrix(0.05,0,0,0.05,219.84999999999997,0)" xlink:href="#bG"/><use transform="matrix(0.05,0,0,0.05,225.79999999999995,0)" xlink:href="#bH"/></g><path fill="#333" d="M141 0L90-78 38 0H4l68-98-65-92h35l48 74 47-74h35l-64 92 68 98h-35" id="cb"/><g id="P"><use transform="matrix(0.05,0,0,0.05,0,0)" xlink:href="#bC"/><use transform="matrix(0.05,0,0,0.05,10,0)" xlink:href="#bt"/><use transform="matrix(0.05,0,0,0.05,13.949999999999998,0)" xlink:href="#aR"/><use transform="matrix(0.05,0,0,0.05,22.95,0)" xlink:href="#bT"/><use transform="matrix(0.05,0,0,0.05,32.95,0)" xlink:href="#by"/><use transform="matrix(0.05,0,0,0.05,36.900000000000006,0)" xlink:href="#bx"/><use transform="matrix(0.05,0,0,0.05,46.900000000000006,0)" xlink:href="#bR"/><use transform="matrix(0.05,0,0,0.05,55.900000000000006,0)" xlink:href="#bF"/><use transform="matrix(0.05,0,0,0.05,65.9,0)" xlink:href="#aR"/><use transform="matrix(0.05,0,0,0.05,74.9,0)" xlink:href="#bA"/><use transform="matrix(0.05,0,0,0.05,84.9,0)" xlink:href="#bV"/><use transform="matrix(0.05,0,0,0.05,93.9,0)" xlink:href="#bV"/><use transform="matrix(0.05,0,0,0.05,102.9,0)" xlink:href="#aS"/><use transform="matrix(0.05,0,0,0.05,112.9,0)" xlink:href="#aR"/><use transform="matrix(0.05,0,0,0.05,121.9,0)" xlink:href="#aR"/><use transform="matrix(0.05,0,0,0.05,130.9,0)" xlink:href="#bF"/><use transform="matrix(0.05,0,0,0.05,140.9,0)" xlink:href="#bE"/><use transform="matrix(0.05,0,0,0.05,145.9,0)" xlink:href="#aT"/><use transform="matrix(0.05,0,0,0.05,151.85,0)" xlink:href="#cb"/><use transform="matrix(0.05,0,0,0.05,160.85,0)" xlink:href="#bG"/><use transform="matrix(0.05,0,0,0.05,166.79999999999998,0)" xlink:href="#bH"/></g><g id="Q"><use transform="matrix(0.05,0,0,0.05,0,0)" xlink:href="#aR"/><use transform="matrix(0.05,0,0,0.05,9,0)" xlink:href="#bA"/><use transform="matrix(0.05,0,0,0.05,19,0)" xlink:href="#bV"/><use transform="matrix(0.05,0,0,0.05,28,0)" xlink:href="#bV"/><use transform="matrix(0.05,0,0,0.05,37,0)" xlink:href="#aS"/><use transform="matrix(0.05,0,0,0.05,47,0)" xlink:href="#aR"/><use transform="matrix(0.05,0,0,0.05,56,0)" xlink:href="#aR"/></g><g id="R"><use transform="matrix(0.05,0,0,0.05,0,0)" xlink:href="#bx"/><use transform="matrix(0.05,0,0,0.05,10,0)" xlink:href="#bB"/><use transform="matrix(0.05,0,0,0.05,20,0)" xlink:href="#bC"/></g><g id="S"><use transform="matrix(0.05,0,0,0.05,0,0)" xlink:href="#bA"/><use transform="matrix(0.05,0,0,0.05,10,0)" xlink:href="#bT"/><use transform="matrix(0.05,0,0,0.05,20,0)" xlink:href="#bC"/><use transform="matrix(0.05,0,0,0.05,30,0)" xlink:href="#bx"/><use transform="matrix(0.05,0,0,0.05,40,0)" xlink:href="#bE"/><use transform="matrix(0.05,0,0,0.05,45,0)" xlink:href="#aS"/><use transform="matrix(0.05,0,0,0.05,55,0)" xlink:href="#bC"/></g><g id="T"><use transform="matrix(0.05,0,0,0.05,0,0)" xlink:href="#bT"/><use transform="matrix(0.05,0,0,0.05,10,0)" xlink:href="#aT"/><use transform="matrix(0.05,0,0,0.05,15.949999999999998,0)" xlink:href="#bw"/><use transform="matrix(0.05,0,0,0.05,25.950000000000003,0)" xlink:href="#bD"/><use transform="matrix(0.05,0,0,0.05,35.95,0)" xlink:href="#aT"/><use transform="matrix(0.05,0,0,0.05,41.900000000000006,0)" xlink:href="#aS"/><use transform="matrix(0.05,0,0,0.05,51.900000000000006,0)" xlink:href="#aR"/><use transform="matrix(0.05,0,0,0.05,60.900000000000006,0)" xlink:href="#aR"/></g><path fill="#333" d="M212-179c-10-28-35-45-73-45-59 0-87 40-87 99 0 60 29 101 89 101 43 0 62-24 78-52l27 14C228-24 195 4 139 4 59 4 22-46 18-125c-6-104 99-153 187-111 19 9 31 26 39 46" id="cc"/><path fill="#333" d="M30 0v-248h187v28H63v79h144v27H63v87h162V0H30" id="cd"/><g id="U"><use transform="matrix(0.05,0,0,0.05,0,0)" xlink:href="#bK"/><use transform="matrix(0.05,0,0,0.05,12,0)" xlink:href="#aQ"/><use transform="matrix(0.05,0,0,0.05,24.950000000000003,0)" xlink:href="#cc"/><use transform="matrix(0.05,0,0,0.05,37.900000000000006,0)" xlink:href="#cc"/><use transform="matrix(0.05,0,0,0.05,50.85000000000001,0)" xlink:href="#cd"/><use transform="matrix(0.05,0,0,0.05,62.85,0)" xlink:href="#bK"/><use transform="matrix(0.05,0,0,0.05,74.85000000000001,0)" xlink:href="#bK"/></g><g id="V"><use transform="matrix(0.05,0,0,0.05,0,0)" xlink:href="#bV"/><use transform="matrix(0.05,0,0,0.05,9,0)" xlink:href="#bw"/><use transform="matrix(0.05,0,0,0.05,19,0)" xlink:href="#bB"/><use transform="matrix(0.05,0,0,0.05,29,0)" xlink:href="#bN"/><use transform="matrix(0.05,0,0,0.05,34,0)" xlink:href="#bt"/><use transform="matrix(0.05,0,0,0.05,37.95,0)" xlink:href="#aT"/><use transform="matrix(0.05,0,0,0.05,43.900000000000006,0)" xlink:href="#bO"/><use transform="matrix(0.05,0,0,0.05,58.85,0)" xlink:href="#bF"/><use transform="matrix(0.05,0,0,0.05,68.85000000000001,0)" xlink:href="#bT"/><use transform="matrix(0.05,0,0,0.05,78.85000000000001,0)" xlink:href="#bx"/><use transform="matrix(0.05,0,0,0.05,88.85000000000001,0)" xlink:href="#bR"/><use transform="matrix(0.05,0,0,0.05,97.85000000000001,0)" xlink:href="#bO"/><use transform="matrix(0.05,0,0,0.05,112.80000000000001,0)" xlink:href="#aS"/><use transform="matrix(0.05,0,0,0.05,122.80000000000001,0)" xlink:href="#bB"/><use transform="matrix(0.05,0,0,0.05,132.8,0)" xlink:href="#bE"/><use transform="matrix(0.05,0,0,0.05,137.8,0)" xlink:href="#bG"/><use transform="matrix(0.05,0,0,0.05,143.75,0)" xlink:href="#bH"/></g><g id="W"><use transform="matrix(0.05,0,0,0.05,0,0)" xlink:href="#bD"/><use transform="matrix(0.05,0,0,0.05,10,0)" xlink:href="#aS"/><use transform="matrix(0.05,0,0,0.05,20,0)" xlink:href="#bE"/><use transform="matrix(0.05,0,0,0.05,25,0)" xlink:href="#bF"/><use transform="matrix(0.05,0,0,0.05,35,0)" xlink:href="#bT"/><use transform="matrix(0.05,0,0,0.05,45,0)" xlink:href="#bx"/><use transform="matrix(0.05,0,0,0.05,55,0)" xlink:href="#bR"/><use transform="matrix(0.05,0,0,0.05,64,0)" xlink:href="#bF"/><use transform="matrix(0.05,0,0,0.05,74,0)" xlink:href="#bV"/><use transform="matrix(0.05,0,0,0.05,83,0)" xlink:href="#bw"/><use transform="matrix(0.05,0,0,0.05,93,0)" xlink:href="#bB"/><use transform="matrix(0.05,0,0,0.05,103,0)" xlink:href="#bN"/><use transform="matrix(0.05,0,0,0.05,108,0)" xlink:href="#bG"/><use transform="matrix(0.05,0,0,0.05,113.95,0)" xlink:href="#bH"/></g><g id="X"><use transform="matrix(0.05,0,0,0.05,0,0)" xlink:href="#aR"/><use transform="matrix(0.05,0,0,0.05,9,0)" xlink:href="#aS"/><use transform="matrix(0.05,0,0,0.05,19,0)" xlink:href="#bB"/><use transform="matrix(0.05,0,0,0.05,29,0)" xlink:href="#bC"/><use transform="matrix(0.05,0,0,0.05,39,0)" xlink:href="#bF"/><use transform="matrix(0.05,0,0,0.05,49,0)" xlink:href="#bV"/><use transform="matrix(0.05,0,0,0.05,58,0)" xlink:href="#aT"/><use transform="matrix(0.05,0,0,0.05,63.95,0)" xlink:href="#aS"/><use transform="matrix(0.05,0,0,0.05,73.95,0)" xlink:href="#bC"/><use transform="matrix(0.05,0,0,0.05,83.95,0)" xlink:href="#aS"/><use transform="matrix(0.05,0,0,0.05,93.95,0)" xlink:href="#bB"/><use transform="matrix(0.05,0,0,0.05,103.95,0)" xlink:href="#bE"/><use transform="matrix(0.05,0,0,0.05,108.95,0)" xlink:href="#bt"/><use transform="matrix(0.05,0,0,0.05,112.9,0)" xlink:href="#bx"/><use transform="matrix(0.05,0,0,0.05,122.9,0)" xlink:href="#by"/><use transform="matrix(0.05,0,0,0.05,126.85000000000001,0)" xlink:href="#aR"/><use transform="matrix(0.05,0,0,0.05,135.85000000000002,0)" xlink:href="#bG"/><use transform="matrix(0.05,0,0,0.05,141.8,0)" xlink:href="#bH"/></g><g id="Y"><use transform="matrix(0.05,0,0,0.05,0,0)" xlink:href="#aT"/><use transform="matrix(0.05,0,0,0.05,5.95,0)" xlink:href="#aS"/><use transform="matrix(0.05,0,0,0.05,15.949999999999998,0)" xlink:href="#bU"/><use transform="matrix(0.05,0,0,0.05,25.950000000000003,0)" xlink:href="#bA"/><use transform="matrix(0.05,0,0,0.05,35.95,0)" xlink:href="#aS"/><use transform="matrix(0.05,0,0,0.05,45.95,0)" xlink:href="#aR"/><use transform="matrix(0.05,0,0,0.05,54.95,0)" xlink:href="#bE"/><use transform="matrix(0.05,0,0,0.05,59.95,0)" xlink:href="#bF"/><use transform="matrix(0.05,0,0,0.05,69.95,0)" xlink:href="#bV"/><use transform="matrix(0.05,0,0,0.05,78.95,0)" xlink:href="#aT"/><use transform="matrix(0.05,0,0,0.05,84.9,0)" xlink:href="#aS"/><use transform="matrix(0.05,0,0,0.05,94.9,0)" xlink:href="#bC"/><use transform="matrix(0.05,0,0,0.05,104.9,0)" xlink:href="#aS"/><use transform="matrix(0.05,0,0,0.05,114.9,0)" xlink:href="#bB"/><use transform="matrix(0.05,0,0,0.05,124.9,0)" xlink:href="#bE"/><use transform="matrix(0.05,0,0,0.05,129.9,0)" xlink:href="#bt"/><use transform="matrix(0.05,0,0,0.05,133.85,0)" xlink:href="#bx"/><use transform="matrix(0.05,0,0,0.05,143.85,0)" xlink:href="#by"/><use transform="matrix(0.05,0,0,0.05,147.79999999999998,0)" xlink:href="#aR"/><use transform="matrix(0.05,0,0,0.05,156.79999999999998,0)" xlink:href="#bG"/><use transform="matrix(0.05,0,0,0.05,162.74999999999997,0)" xlink:href="#bH"/></g></defs></g></svg>