<svg xmlns="http://www.w3.org/2000/svg" xmlns:xlink="http://www.w3.org/1999/xlink" xmlns:lucid="lucid" width="1373" height="1059"><g transform="translate(-200 0)" lucid:page-tab-id="0_0"><path d="M0 0h1760v1360H0z" fill="#fff"/><path d="M611.6 77c0-4.42 3.6-8 8-8h520.8c4.4 0 8 3.58 8 8v26.15c0 4.4-3.6 8-8 8H619.6c-4.4 0-8-3.6-8-8z" stroke="#000" stroke-opacity="0" stroke-width="2" fill="#fff" fill-opacity="0"/><use xlink:href="#a" transform="matrix(1,0,0,1,615.6089147274068,73) translate(128.90506172839508 23.657777777777778)"/><use xlink:href="#b" transform="matrix(1,0,0,1,615.6089147274068,73) translate(217.6235802469136 23.657777777777778)"/><use xlink:href="#c" transform="matrix(1,0,0,1,615.6089147274068,73) translate(283.1062962962963 23.657777777777778)"/><path d="M711.57 109.77h341.96M711.6 109.77h-1.03M1053.5 109.77h1.03" stroke="#b2b2b2" stroke-width="2" fill="none"/><path d="M589.5 119.15c0-4.42 3.6-8 8-8h565c4.4 0 8 3.58 8 8v15.25c0 4.4-3.6 8-8 8h-565c-4.4 0-8-3.6-8-8z" stroke="#000" stroke-opacity="0" stroke-width="2" fill="#fff" fill-opacity="0"/><use xlink:href="#d" transform="matrix(1,0,0,1,593.5143151923994,115.1466666666667) translate(76.17172839506176 16.417037037037037)"/><use xlink:href="#e" transform="matrix(1,0,0,1,593.5143151923994,115.1466666666667) translate(146.32224279835395 16.417037037037037)"/><use xlink:href="#f" transform="matrix(1,0,0,1,593.5143151923994,115.1466666666667) translate(192.93345679012347 16.417037037037037)"/><use xlink:href="#g" transform="matrix(1,0,0,1,593.5143151923994,115.1466666666667) translate(225.140658436214 16.417037037037037)"/><use xlink:href="#h" transform="matrix(1,0,0,1,593.5143151923994,115.1466666666667) translate(234.44590534979426 16.417037037037037)"/><use xlink:href="#i" transform="matrix(1,0,0,1,593.5143151923994,115.1466666666667) translate(310.714938271605 16.417037037037037)"/><use xlink:href="#j" transform="matrix(1,0,0,1,593.5143151923994,115.1466666666667) translate(382.0126748971194 16.417037037037037)"/><use xlink:href="#k" transform="matrix(1,0,0,1,593.5143151923994,115.1466666666667) translate(394.75958847736626 16.417037037037037)"/><use xlink:href="#l" transform="matrix(1,0,0,1,593.5143151923994,115.1466666666667) translate(443.9626748971193 16.417037037037037)"/><use xlink:href="#m" transform="matrix(1,0,0,1,593.5143151923994,115.1466666666667) translate(469.4565020576132 16.417037037037037)"/><path d="M399.75 239.75c0 10.9-8.84 19.75-19.75 19.75-10.9 0-19.75-8.84-19.75-19.75 0-10.9 8.84-19.75 19.75-19.75 10.9 0 19.75 8.84 19.75 19.75z" stroke="#333" fill="#fff"/><path d="M380 259.5v47.3c0 4.42 1.92 11.03 4.28 14.76L420 378m-40-63.2L340 378m0-98.75h80" stroke="#333" fill="none"/><path d="M340 228c0-4.42 3.58-8 8-8h64c4.42 0 8 3.58 8 8v164c0 4.42-3.58 8-8 8h-64c-4.42 0-8-3.58-8-8z" fill="none"/><use xlink:href="#n" transform="matrix(1,0,0,1,260,378) translate(101.05 14.6)"/><path d="M620 258c0-4.42 3.58-8 8-8h144c4.42 0 8 3.58 8 8v104c0 4.42-3.58 8-8 8H628c-4.42 0-8-3.58-8-8z" stroke="#333" fill="#fff"/><use xlink:href="#o" transform="matrix(1,0,0,1,620,250) translate(37.25499999999999 63.15)"/><path d="M980 258c0-4.42 3.58-8 8-8h144c4.42 0 8 3.58 8 8v104c0 4.42-3.58 8-8 8H988c-4.42 0-8-3.58-8-8z" stroke="#333" fill="#fff"/><use xlink:href="#p" transform="matrix(1,0,0,1,980,250) translate(17.654999999999994 63.15)"/><path d="M1340 258c0-4.42 3.58-8 8-8h144c4.42 0 8 3.58 8 8v104c0 4.42-3.58 8-8 8h-144c-4.42 0-8-3.58-8-8z" stroke="#333" fill="#fff"/><use xlink:href="#q" transform="matrix(1,0,0,1,1340,250) translate(31.354999999999997 51.9)"/><use xlink:href="#r" transform="matrix(1,0,0,1,1340,250) translate(41.529999999999994 73.5)"/><path d="M700 371v9.98m0 9.98v19.96m0 9.98v19.96m0 9.98v19.96m0 9.98v19.96m0 9.98v19.96m0 9.98v19.96m0 9.98v19.96m0 9.98v19.96m0 9.98v19.96m0 9.98v19.96m0 9.98v19.96m0 9.98v19.96m0 9.98v19.96m0 9.98v19.96m0 9.98v19.96m0 9.98v19.96m0 9.98v19.96m0 9.98v19.96m0 9.98v19.96m0 9.98v19.96m0 9.98v19.96m0 9.98v19.96m0 9.98v19.96m0 9.98v19.96m0 9.98v9.98" stroke="#333" fill="none"/><path d="M700.5 371h-1v-.5h1z" fill="#333"/><path d="M700 1119.5v.5M1060 371v9.98m0 9.98v19.96m0 9.98v19.96m0 9.98v19.96m0 9.98v19.96m0 9.98v19.96m0 9.98v19.96m0 9.98v19.96m0 9.98v19.96m0 9.98v19.96m0 9.98v19.96m0 9.98v19.96m0 9.98v19.96m0 9.98v19.96m0 9.98v19.96m0 9.98v19.96m0 9.98v19.96m0 9.98v19.96m0 9.98v19.96m0 9.98v19.96m0 9.98v19.96m0 9.98v19.96m0 9.98v19.96m0 9.98v19.96m0 9.98v19.96m0 9.98v9.98" stroke="#333" fill="none"/><path d="M1060.5 371h-1v-.5h1z" fill="#333"/><path d="M1060 1119.5v.5M1420 371v9.98m0 9.98v19.96m0 9.98v19.96m0 9.98v19.96m0 9.98v19.96m0 9.98v19.96m0 9.98v19.96m0 9.98v19.96m0 9.98v19.96m0 9.98v19.96m0 9.98v19.96m0 9.98v19.96m0 9.98v19.96m0 9.98v19.96m0 9.98v19.96m0 9.98v19.96m0 9.98v19.96m0 9.98v19.96m0 9.98v19.96m0 9.98v19.96m0 9.98v19.96m0 9.98v19.96m0 9.98v19.96m0 9.98v19.96m0 9.98v19.96m0 9.98v9.98" stroke="#333" fill="none"/><path d="M1420.5 371h-1v-.5h1z" fill="#333"/><path d="M1420 1119.5v.5M380 316.23v9.92m0 9.92v19.83m0 9.92v19.83m0 9.92v19.83m0 9.92v19.83m0 9.92v19.83m0 9.92v19.83m0 9.92v19.83m0 9.92v19.84m0 9.9v19.85m0 9.92v19.84m0 9.9v19.85m0 9.92v19.84m0 9.9v19.85m0 9.92v19.84m0 9.92v19.83m0 9.93v19.83m0 9.92v19.83m0 9.93v19.83m0 9.92v19.83m0 9.93v19.83m0 9.92v19.83m0 9.93v19.83m0 9.92v19.83m0 9.93v19.83m0 9.92v19.83m0 9.93v19.84m0 9.9v9.93M380 1119.5v.5M380.5 437.33h282.62M380.5 437.33h-.5" stroke="#333" fill="none"/><path d="M677.88 437.33l-14.26 4.64v-9.27z" stroke="#333" fill="#333"/><use xlink:href="#s" transform="matrix(1,0,0,1,481.325,411.7313333333333) translate(0.005000000000002558 14.4)"/><use xlink:href="#t" transform="matrix(1,0,0,1,481.325,411.7313333333333) translate(58.90500000000001 14.4)"/><path d="M721 457.33h302.12" stroke="#333" fill="none"/><path d="M721 457.83h-.5v-1h.5z" fill="#333"/><path d="M1037.88 457.33l-14.26 4.64v-9.27z" stroke="#333" fill="#333"/><use xlink:href="#u" transform="matrix(1,0,0,1,806.3,431.7333333333332) translate(0.0049999999999954525 14.4)"/><use xlink:href="#v" transform="matrix(1,0,0,1,806.3,431.7333333333332) translate(41.605 14.4)"/><path d="M736.88 497.33h4.9m4.88 0h9.78m4.88 0h9.78m4.9 0h9.77m4.88 0h9.78m4.9 0h9.76m4.88 0h9.78m4.9 0h9.76m4.9 0h9.77m4.88 0h9.77m4.9 0h9.77m4.88 0h9.78m4.9 0h9.76m4.9 0h9.77m4.9 0h9.77m4.9 0h9.77m4.9 0h9.76m4.9 0h9.77m4.88 0h9.78m4.9 0h9.77m4.88 0h9.78m4.9 0h9.76m4.9 0h4.88" stroke="#333" fill="none"/><path d="M722.12 497.33l14.26-4.63v9.27z" stroke="#333" fill="#333"/><path d="M1059.5 497.33h.5" stroke="#333" fill="none"/><use xlink:href="#w" transform="matrix(1,0,0,1,815.85,471.73333333333335) translate(0.0049999999999954525 14.4)"/><path d="M396.38 512h4.96m4.96 0h9.92m4.95 0h9.92m4.95 0h9.92m4.95 0h9.92m4.96 0h9.9m4.97 0h9.92m4.95 0h9.9m4.97 0h9.92m4.96 0h9.9m4.97 0h9.92m4.95 0h9.9m4.97 0h9.92m4.95 0h9.9m4.97 0h9.92m4.94 0h9.92m4.96 0h9.9m4.97 0h9.9m4.97 0h9.9m4.97 0H679" stroke="#333" fill="none"/><path d="M381.62 512l14.26-4.64v9.27z" stroke="#333" fill="#333"/><path d="M679.5 512.5h-.5v-1h.5z" fill="#333"/><use xlink:href="#x" transform="matrix(1,0,0,1,485.5,486.399) translate(0.005000000000002558 14.4)"/><use xlink:href="#y" transform="matrix(1,0,0,1,485.5,486.399) translate(49.955000000000005 14.4)"/><path d="M380.5 560h282.62M380.5 560h-.5" stroke="#333" fill="none"/><path d="M677.88 560l-14.26 4.63v-9.27z" stroke="#333" fill="#333"/><use xlink:href="#z" transform="matrix(1,0,0,1,456.875,534.3980000000001) translate(0.0049999999999954525 14.4)"/><use xlink:href="#A" transform="matrix(1,0,0,1,456.875,534.3980000000001) translate(47.955 14.4)"/><use xlink:href="#B" transform="matrix(1,0,0,1,456.875,534.3980000000001) translate(90.905 14.4)"/><path d="M700.5 605.33h322.62M700.5 605.33h-.5" stroke="#333" fill="none"/><path d="M1037.88 605.33l-14.26 4.64v-9.27z" stroke="#333" fill="#333"/><use xlink:href="#C" transform="matrix(1,0,0,1,790.0499999999997,579.7333333333333) translate(0.0049999999999954525 14.4)"/><use xlink:href="#v" transform="matrix(1,0,0,1,790.0499999999997,579.7333333333333) translate(53.605 14.4)"/><path d="M1060.5 622.67h323.12M1060.5 622.67h-.5" stroke="#333" fill="none"/><path d="M1398.38 622.67l-14.26 4.63v-9.27z" stroke="#333" fill="#333"/><use xlink:href="#D" transform="matrix(1,0,0,1,1174.775,597.0666666666667) translate(0.005000000000002558 14.4)"/><use xlink:href="#E" transform="matrix(1,0,0,1,1174.775,597.0666666666667) translate(76.505 14.4)"/><path d="M1096.88 681.33h4.9m4.88 0h9.78m4.88 0h9.78m4.9 0h9.77m4.88 0h9.78m4.9 0h9.76m4.88 0h9.78m4.9 0h9.76m4.9 0h9.77m4.88 0h9.77m4.9 0h9.77m4.88 0h9.78m4.9 0h9.76m4.9 0h9.77m4.9 0h9.77m4.9 0h9.77m4.9 0h9.76m4.9 0h9.77m4.88 0h9.78m4.9 0h9.77m4.88 0h9.78m4.9 0h9.76m4.9 0h4.88" stroke="#333" fill="none"/><path d="M1082.12 681.33l14.26-4.63v9.27z" stroke="#333" fill="#333"/><path d="M1419.5 681.33h.5" stroke="#333" fill="none"/><use xlink:href="#F" transform="matrix(1,0,0,1,1206.825,655.7333333333336) translate(0.005000000000002558 14.4)"/><path d="M736.88 704h4.9m4.88 0h9.78m4.88 0h9.78m4.9 0h9.77m4.88 0h9.78m4.9 0h9.76m4.88 0h9.78m4.9 0h9.76m4.9 0h9.77m4.88 0h9.77m4.9 0h9.77m4.88 0h9.78m4.9 0h9.76m4.9 0h9.77m4.9 0h9.77m4.9 0h9.77m4.9 0h9.76m4.9 0h9.77m4.88 0h9.78m4.9 0h9.77m4.88 0h9.78m4.9 0h9.76m4.9 0h4.88" stroke="#333" fill="none"/><path d="M722.12 704l14.26-4.64v9.28z" stroke="#333" fill="#333"/><path d="M1059.5 704h.5" stroke="#333" fill="none"/><use xlink:href="#G" transform="matrix(1,0,0,1,818.85,678.4000000000001) translate(0.0049999999999954525 14.4)"/><path d="M396.38 724h4.96m4.96 0h9.92m4.95 0h9.92m4.95 0h9.92m4.95 0h9.92m4.96 0h9.9m4.97 0h9.92m4.95 0h9.9m4.97 0h9.92m4.96 0h9.9m4.97 0h9.92m4.95 0h9.9m4.97 0h9.92m4.95 0h9.9m4.97 0h9.92m4.94 0h9.92m4.96 0h9.9m4.97 0h9.9m4.97 0h9.9m4.97 0H679" stroke="#333" fill="none"/><path d="M381.62 724l14.26-4.64v9.27z" stroke="#333" fill="#333"/><path d="M679.5 724.5h-.5v-1h.5z" fill="#333"/><g><use xlink:href="#H" transform="matrix(1,0,0,1,423.875,698.3980000000001) translate(0.0049999999999954525 14.4)"/><use xlink:href="#I" transform="matrix(1,0,0,1,423.875,698.3980000000001) translate(104.905 14.4)"/><use xlink:href="#t" transform="matrix(1,0,0,1,423.875,698.3980000000001) translate(173.805 14.4)"/></g><path d="M396.38 818.67h4.96m4.96 0h9.92m4.95 0h9.92m4.95 0h9.92m4.95 0h9.92m4.96 0h9.9m4.97 0h9.92m4.95 0h9.9m4.97 0h9.92m4.96 0h9.9m4.97 0h9.92m4.95 0h9.9m4.97 0h9.92m4.95 0h9.9m4.97 0h9.92m4.94 0h9.92m4.96 0h9.9m4.97 0h9.9m4.97 0h9.9m4.97 0H679" stroke="#333" fill="none"/><path d="M381.62 818.67l14.26-4.64v9.27z" stroke="#333" fill="#333"/><path d="M679.5 819.17h-.5v-1h.5z" fill="#333"/><g><use xlink:href="#J" transform="matrix(1,0,0,1,435.92499999999995,793.0656666666667) translate(0.0049999999999954525 14.4)"/><use xlink:href="#K" transform="matrix(1,0,0,1,435.92499999999995,793.0656666666667) translate(56.905 14.4)"/><use xlink:href="#L" transform="matrix(1,0,0,1,435.92499999999995,793.0656666666667) translate(116.75500000000001 14.4)"/></g><path d="M240 580c0-4.42 3.58-8 8-8h84c4.42 0 8 3.58 8 8v4.93c0 3.9-2.24 9.3-5 12.07-2.76 2.76-8.17 5-12.07 5H248c-4.42 0-8-3.58-8-8z" fill="#fff"/><path d="M340 572v20l-10 10h-90" stroke="#333" fill="none"/><path d="M240 580c0-4.42 3.58-8 8-8h1264c4.42 0 8 3.58 8 8v352c0 4.42-3.58 8-8 8H248c-4.42 0-8-3.58-8-8zM240 756h20m15 0h20m15 0h20m15 0h20m15 0h20m15 0h20m15 0h20m15 0h20m15 0h20m15 0h20m15 0h20m15 0h20m15 0h20m15 0h20m15 0h20m15 0h20m15 0h20m15 0h20m15 0h20m15 0h20m15 0h20m15 0h20m15 0h20m15 0h20m15 0h20m15 0h20m15 0h20m15 0h20m15 0h20m15 0h20m15 0h20m15 0h20m15 0h20m15 0h20m15 0h20m15 0h20m15 0h20" stroke="#333" fill="none"/><g><use xlink:href="#M" transform="matrix(1,0,0,1,248,572) translate(-1.4249999999999972 18.6)"/></g><g><use xlink:href="#N" transform="matrix(1,0,0,1,252,610) translate(7.799999999999997 18.6)"/><use xlink:href="#O" transform="matrix(1,0,0,1,252,610) translate(56.349999999999994 18.6)"/><use xlink:href="#P" transform="matrix(1,0,0,1,252,610) translate(95.3 18.6)"/></g><g><use xlink:href="#Q" transform="matrix(1,0,0,1,252,764) translate(17.525 18.6)"/></g><path d="M1040 428c0-4.42 3.58-8 8-8h24c4.42 0 8 3.58 8 8v284c0 4.42-3.58 8-8 8h-24c-4.42 0-8-3.58-8-8zM1400 608c0-4.42 3.58-8 8-8h24c4.42 0 8 3.58 8 8v84c0 4.42-3.58 8-8 8h-24c-4.42 0-8-3.58-8-8zM680 388c0-4.42 3.58-8 8-8h24c4.42 0 8 3.58 8 8v564c0 4.42-3.58 8-8 8h-24c-4.42 0-8-3.58-8-8z" stroke="#333" fill="#fff"/><defs><path fill="#77818c" d="M67-125c0 53 21 87 73 88 37 1 54-22 65-47l45 17C233-25 199 4 140 4 58 4 20-42 15-125 8-235 124-281 211-232c18 10 29 29 36 50l-46 12c-8-25-30-41-62-41-52 0-71 34-72 86" id="R"/><path fill="#77818c" d="M135-150c-39-12-60 13-60 57V0H25l-1-190h47c2 13-1 29 3 40 6-28 27-53 61-41v41" id="S"/><path fill="#77818c" d="M185-48c-13 30-37 53-82 52C43 2 14-33 14-96s30-98 90-98c62 0 83 45 84 108H66c0 31 8 55 39 56 18 0 30-7 34-22zm-45-69c5-46-57-63-70-21-2 6-4 13-4 21h74" id="T"/><path fill="#77818c" d="M133-34C117-15 103 5 69 4 32 3 11-16 11-54c-1-60 55-63 116-61 1-26-3-47-28-47-18 1-26 9-28 27l-52-2c7-38 36-58 82-57s74 22 75 68l1 82c-1 14 12 18 25 15v27c-30 8-71 5-69-32zm-48 3c29 0 43-24 42-57-32 0-66-3-65 30 0 17 8 27 23 27" id="U"/><path fill="#77818c" d="M115-3C79 11 28 4 28-45v-112H4v-33h27l15-45h31v45h36v33H77v99c-1 23 16 31 38 25v30" id="V"/><g id="a"><use transform="matrix(0.0728395061728395,0,0,0.0728395061728395,0,0)" xlink:href="#R"/><use transform="matrix(0.0728395061728395,0,0,0.0728395061728395,18.86543209876543,0)" xlink:href="#S"/><use transform="matrix(0.0728395061728395,0,0,0.0728395061728395,29.062962962962963,0)" xlink:href="#T"/><use transform="matrix(0.0728395061728395,0,0,0.0728395061728395,43.63086419753086,0)" xlink:href="#U"/><use transform="matrix(0.0728395061728395,0,0,0.0728395061728395,58.19876543209875,0)" xlink:href="#V"/><use transform="matrix(0.0728395061728395,0,0,0.0728395061728395,66.86666666666666,0)" xlink:href="#T"/></g><path fill="#77818c" d="M67-125c0 54 23 88 75 88 28 0 53-7 68-21v-34h-60v-39h108v91C232-14 192 4 140 4 58 4 20-42 15-125 8-236 126-280 215-234c19 10 29 26 37 47l-47 15c-11-23-29-39-63-39-53 1-75 33-75 86" id="W"/><path fill="#77818c" d="M110-194c64 0 96 36 96 99 0 64-35 99-97 99-61 0-95-36-95-99 0-62 34-99 96-99zm-1 164c35 0 45-28 45-65 0-40-10-65-43-65-34 0-45 26-45 65 0 36 10 65 43 65" id="X"/><path fill="#77818c" d="M25 0v-261h50V0H25" id="Y"/><g id="b"><use transform="matrix(0.0728395061728395,0,0,0.0728395061728395,0,0)" xlink:href="#W"/><use transform="matrix(0.0728395061728395,0,0,0.0728395061728395,20.39506172839506,0)" xlink:href="#X"/><use transform="matrix(0.0728395061728395,0,0,0.0728395061728395,36.34691358024691,0)" xlink:href="#U"/><use transform="matrix(0.0728395061728395,0,0,0.0728395061728395,50.91481481481481,0)" xlink:href="#Y"/></g><path fill="#77818c" d="M169-182c-1-43-94-46-97-3 18 66 151 10 154 114 3 95-165 93-204 36-6-8-10-19-12-30l50-8c3 46 112 56 116 5-17-69-150-10-154-114-4-87 153-88 188-35 5 8 8 18 10 28" id="Z"/><path fill="#77818c" d="M84 4C32 4 15-41 15-95c0-55 18-99 73-99 29 0 47 12 58 34l2-30h48l-1 265h-49V-32C136-9 114 4 84 4zm21-34c32 0 41-29 41-66 0-36-9-64-40-64-33 0-39 30-40 65 0 43 13 65 39 65" id="aa"/><path fill="#77818c" d="M85 4C-2 5 27-109 22-190h50c7 57-23 150 33 157 60-5 35-97 40-157h50l1 190h-47c-2-12 1-28-3-38-12 25-28 42-61 42" id="ab"/><path fill="#77818c" d="M135-194c87-1 58 113 63 194h-50c-7-57 23-157-34-157-59 0-34 97-39 157H25l-1-190h47c2 12-1 28 3 38 12-26 28-41 61-42" id="ac"/><path fill="#77818c" d="M190-63c-7 42-38 67-86 67-59 0-84-38-90-98-12-110 154-137 174-36l-49 2c-2-19-15-32-35-32-30 0-35 28-38 64-6 74 65 87 74 30" id="ad"/><g id="c"><use transform="matrix(0.0728395061728395,0,0,0.0728395061728395,0,0)" xlink:href="#Z"/><use transform="matrix(0.0728395061728395,0,0,0.0728395061728395,17.48148148148148,0)" xlink:href="#T"/><use transform="matrix(0.0728395061728395,0,0,0.0728395061728395,32.04938271604938,0)" xlink:href="#aa"/><use transform="matrix(0.0728395061728395,0,0,0.0728395061728395,48.00123456790123,0)" xlink:href="#ab"/><use transform="matrix(0.0728395061728395,0,0,0.0728395061728395,63.95308641975308,0)" xlink:href="#T"/><use transform="matrix(0.0728395061728395,0,0,0.0728395061728395,78.52098765432098,0)" xlink:href="#ac"/><use transform="matrix(0.0728395061728395,0,0,0.0728395061728395,94.47283950617283,0)" xlink:href="#ad"/><use transform="matrix(0.0728395061728395,0,0,0.0728395061728395,109.04074074074072,0)" xlink:href="#T"/></g><path fill="#77818c" d="M24-248c93 1 206-16 204 79-1 75-69 88-152 82V0H24v-248zm52 121c47 0 100 7 100-41 0-47-54-39-100-39v80" id="ae"/><path fill="#77818c" d="M147 0L96-86 75-71V0H25v-261h50v150l67-79h53l-66 74L201 0h-54" id="af"/><path fill="#77818c" d="M128 0H69L1-190h53L99-40l48-150h52" id="ag"/><path fill="#77818c" d="M76-54c-1 42 2 86-19 110H24C36 42 46 24 48 0H25v-54h51" id="ah"/><g id="d"><use transform="matrix(0.04248971193415638,0,0,0.04248971193415638,0,0)" xlink:href="#ae"/><use transform="matrix(0.04248971193415638,0,0,0.04248971193415638,10.19753086419753,0)" xlink:href="#T"/><use transform="matrix(0.04248971193415638,0,0,0.04248971193415638,18.695473251028805,0)" xlink:href="#Y"/><use transform="matrix(0.04248971193415638,0,0,0.04248971193415638,22.944444444444443,0)" xlink:href="#V"/><use transform="matrix(0.04248971193415638,0,0,0.04248971193415638,28.000720164609053,0)" xlink:href="#T"/><use transform="matrix(0.04248971193415638,0,0,0.04248971193415638,36.498662551440326,0)" xlink:href="#af"/><use transform="matrix(0.04248971193415638,0,0,0.04248971193415638,44.9966049382716,0)" xlink:href="#X"/><use transform="matrix(0.04248971193415638,0,0,0.04248971193415638,54.30185185185185,0)" xlink:href="#ag"/><use transform="matrix(0.04248971193415638,0,0,0.04248971193415638,61.6525720164609,0)" xlink:href="#ah"/></g><path fill="#77818c" d="M199 0l-22-63H83L61 0H9l90-248h61L250 0h-51zm-33-102l-36-108c-10 38-24 72-36 108h72" id="ai"/><path fill="#77818c" d="M195-6C206 82 75 100 31 46c-4-6-6-13-8-21l49-6c3 16 16 24 34 25 40 0 42-37 40-79-11 22-30 35-61 35-53 0-70-43-70-97 0-56 18-96 73-97 30 0 46 14 59 34l2-30h47zm-90-29c32 0 41-27 41-63 0-35-9-62-40-62-32 0-39 29-40 63 0 36 9 62 39 62" id="aj"/><g id="e"><use transform="matrix(0.04248971193415638,0,0,0.04248971193415638,0,0)" xlink:href="#ai"/><use transform="matrix(0.04248971193415638,0,0,0.04248971193415638,11.004835390946502,0)" xlink:href="#ac"/><use transform="matrix(0.04248971193415638,0,0,0.04248971193415638,20.31008230452675,0)" xlink:href="#aj"/><use transform="matrix(0.04248971193415638,0,0,0.04248971193415638,29.615329218106993,0)" xlink:href="#T"/><use transform="matrix(0.04248971193415638,0,0,0.04248971193415638,38.11327160493827,0)" xlink:href="#Y"/></g><path fill="#77818c" d="M67-93c0 74 22 123 53 168H70C40 30 18-18 18-93s22-123 52-168h50c-32 44-53 94-53 168" id="ak"/><path fill="#77818c" d="M238-95c0 69-44 99-111 99C63 4 22-25 22-93v-155h51v151c-1 38 19 59 55 60 90 1 49-130 58-211h52v153" id="al"/><g id="f"><use transform="matrix(0.04248971193415638,0,0,0.04248971193415638,0,0)" xlink:href="#ak"/><use transform="matrix(0.04248971193415638,0,0,0.04248971193415638,5.056275720164609,0)" xlink:href="#al"/><use transform="matrix(0.04248971193415638,0,0,0.04248971193415638,16.06111111111111,0)" xlink:href="#W"/></g><path fill="#77818c" d="M14-72v-43h91v43H14" id="am"/><use transform="matrix(0.04248971193415638,0,0,0.04248971193415638,0,0)" xlink:href="#am" id="g"/><path fill="#77818c" d="M220-157c-53 9-28 100-34 157h-49v-107c1-27-5-49-29-50C55-147 81-57 75 0H25l-1-190h47c2 12-1 28 3 38 10-53 101-56 108 0 13-22 24-43 59-42 82 1 51 116 57 194h-49v-107c-1-25-5-48-29-50" id="an"/><path fill="#77818c" d="M135-194c53 0 70 44 70 98 0 56-19 98-73 100-31 1-45-17-59-34 3 33 2 69 2 105H25l-1-265h48c2 10 0 23 3 31 11-24 29-35 60-35zM114-30c33 0 39-31 40-66 0-38-9-64-40-64-56 0-55 130 0 130" id="ao"/><g id="h"><use transform="matrix(0.04248971193415638,0,0,0.04248971193415638,0,0)" xlink:href="#R"/><use transform="matrix(0.04248971193415638,0,0,0.04248971193415638,11.004835390946502,0)" xlink:href="#X"/><use transform="matrix(0.04248971193415638,0,0,0.04248971193415638,20.31008230452675,0)" xlink:href="#an"/><use transform="matrix(0.04248971193415638,0,0,0.04248971193415638,33.90679012345679,0)" xlink:href="#ao"/><use transform="matrix(0.04248971193415638,0,0,0.04248971193415638,43.212037037037035,0)" xlink:href="#ab"/><use transform="matrix(0.04248971193415638,0,0,0.04248971193415638,52.51728395061728,0)" xlink:href="#V"/><use transform="matrix(0.04248971193415638,0,0,0.04248971193415638,57.57355967078189,0)" xlink:href="#T"/><use transform="matrix(0.04248971193415638,0,0,0.04248971193415638,66.07150205761316,0)" xlink:href="#S"/></g><path fill="#77818c" d="M25-224v-37h50v37H25zM25 0v-190h50V0H25" id="ap"/><path fill="#77818c" d="M102-93c0 74-22 123-52 168H0C30 29 54-18 53-93c0-74-22-123-53-168h50c30 45 52 94 52 168" id="aq"/><g id="i"><use transform="matrix(0.04248971193415638,0,0,0.04248971193415638,0,0)" xlink:href="#Z"/><use transform="matrix(0.04248971193415638,0,0,0.04248971193415638,10.19753086419753,0)" xlink:href="#ad"/><use transform="matrix(0.04248971193415638,0,0,0.04248971193415638,18.695473251028805,0)" xlink:href="#ap"/><use transform="matrix(0.04248971193415638,0,0,0.04248971193415638,22.944444444444443,0)" xlink:href="#T"/><use transform="matrix(0.04248971193415638,0,0,0.04248971193415638,31.44238683127572,0)" xlink:href="#ac"/><use transform="matrix(0.04248971193415638,0,0,0.04248971193415638,40.74763374485597,0)" xlink:href="#ad"/><use transform="matrix(0.04248971193415638,0,0,0.04248971193415638,49.245576131687244,0)" xlink:href="#T"/><use transform="matrix(0.04248971193415638,0,0,0.04248971193415638,57.74351851851851,0)" xlink:href="#aq"/></g><path fill="#77818c" d="M27 80v-341h46V80H27" id="ar"/><use transform="matrix(0.04248971193415638,0,0,0.04248971193415638,0,0)" xlink:href="#ar" id="j"/><path fill="#77818c" d="M230 0l2-204L168 0h-37L68-204 70 0H24v-248h70l56 185 57-185h69V0h-46" id="as"/><path fill="#77818c" d="M114-157C55-157 80-60 75 0H25v-261h50l-1 109c12-26 28-41 61-42 86-1 58 113 63 194h-50c-7-57 23-157-34-157" id="at"/><g id="k"><use transform="matrix(0.04248971193415638,0,0,0.04248971193415638,0,0)" xlink:href="#as"/><use transform="matrix(0.04248971193415638,0,0,0.04248971193415638,12.704423868312757,0)" xlink:href="#U"/><use transform="matrix(0.04248971193415638,0,0,0.04248971193415638,21.20236625514403,0)" xlink:href="#S"/><use transform="matrix(0.04248971193415638,0,0,0.04248971193415638,27.150925925925925,0)" xlink:href="#ad"/><use transform="matrix(0.04248971193415638,0,0,0.04248971193415638,35.6488683127572,0)" xlink:href="#at"/></g><path fill="#77818c" d="M182-182c0 78-84 86-111 141h115V0H12c-6-101 99-100 120-180 1-22-12-31-33-32-23 0-32 14-35 34l-49-3c5-45 32-70 84-70 51 0 83 22 83 69" id="au"/><path fill="#77818c" d="M99-251c69 0 84 53 88 123 5 99-61 162-144 118-15-8-21-25-26-45l46-6c4 31 50 33 63 7 7-15 12-36 12-60-9 18-29 28-54 28-48 0-72-32-72-82 0-55 31-83 87-83zm-1 128c24 0 37-16 37-39 0-27-10-51-37-51-25 0-35 19-35 45 0 25 10 45 35 45" id="av"/><g id="l"><use transform="matrix(0.04248971193415638,0,0,0.04248971193415638,0,0)" xlink:href="#au"/><use transform="matrix(0.04248971193415638,0,0,0.04248971193415638,8.497942386831275,0)" xlink:href="#av"/><use transform="matrix(0.04248971193415638,0,0,0.04248971193415638,16.99588477366255,0)" xlink:href="#ah"/></g><path fill="#77818c" d="M101-251c68 0 84 54 84 127C185-50 166 4 99 4S15-52 14-124c-1-75 17-127 87-127zm-1 216c37-5 36-46 36-89s4-89-36-89c-39 0-36 45-36 89 0 43-3 85 36 89" id="aw"/><g id="m"><use transform="matrix(0.04248971193415638,0,0,0.04248971193415638,0,0)" xlink:href="#au"/><use transform="matrix(0.04248971193415638,0,0,0.04248971193415638,8.497942386831275,0)" xlink:href="#aw"/><use transform="matrix(0.04248971193415638,0,0,0.04248971193415638,16.99588477366255,0)" xlink:href="#au"/><use transform="matrix(0.04248971193415638,0,0,0.04248971193415638,25.493827160493822,0)" xlink:href="#aw"/></g><path fill="#333" d="M232-93c-1 65-40 97-104 97C67 4 28-28 28-90v-158h33c8 89-33 224 67 224 102 0 64-133 71-224h33v155" id="ax"/><path fill="#333" d="M135-143c-3-34-86-38-87 0 15 53 115 12 119 90S17 21 10-45l28-5c4 36 97 45 98 0-10-56-113-15-118-90-4-57 82-63 122-42 12 7 21 19 24 35" id="ay"/><path fill="#333" d="M100-194c63 0 86 42 84 106H49c0 40 14 67 53 68 26 1 43-12 49-29l28 8c-11 28-37 45-77 45C44 4 14-33 15-96c1-61 26-98 85-98zm52 81c6-60-76-77-97-28-3 7-6 17-6 28h103" id="az"/><path fill="#333" d="M114-163C36-179 61-72 57 0H25l-1-190h30c1 12-1 29 2 39 6-27 23-49 58-41v29" id="aA"/><g id="n"><use transform="matrix(0.05,0,0,0.05,0,0)" xlink:href="#ax"/><use transform="matrix(0.05,0,0,0.05,12.950000000000001,0)" xlink:href="#ay"/><use transform="matrix(0.05,0,0,0.05,21.950000000000003,0)" xlink:href="#az"/><use transform="matrix(0.05,0,0,0.05,31.950000000000003,0)" xlink:href="#aA"/></g><path d="M143 4C61 4 22-44 18-125c-5-107 100-154 193-111 17 8 29 25 37 43l-32 9c-13-25-37-40-76-40-61 0-88 39-88 99 0 61 29 100 91 101 35 0 62-11 79-27v-45h-74v-28h105v86C228-13 192 4 143 4" id="aB"/><path d="M100-194c62-1 85 37 85 99 1 63-27 99-86 99S16-35 15-95c0-66 28-99 85-99zM99-20c44 1 53-31 53-75 0-43-8-75-51-75s-53 32-53 75 10 74 51 75" id="aC"/><path d="M141-36C126-15 110 5 73 4 37 3 15-17 15-53c-1-64 63-63 125-63 3-35-9-54-41-54-24 1-41 7-42 31l-33-3c5-37 33-52 76-52 45 0 72 20 72 64v82c-1 20 7 32 28 27v20c-31 9-61-2-59-35zM48-53c0 20 12 33 32 33 41-3 63-29 60-74-43 2-92-5-92 41" id="aD"/><path d="M24 0v-261h32V0H24" id="aE"/><path d="M135-143c-3-34-86-38-87 0 15 53 115 12 119 90S17 21 10-45l28-5c4 36 97 45 98 0-10-56-113-15-118-90-4-57 82-63 122-42 12 7 21 19 24 35" id="aF"/><path d="M137 0h-34L2-248h35l83 218 83-218h36" id="aG"/><path d="M24-231v-30h32v30H24zM24 0v-190h32V0H24" id="aH"/><path d="M100-194c63 0 86 42 84 106H49c0 40 14 67 53 68 26 1 43-12 49-29l28 8c-11 28-37 45-77 45C44 4 14-33 15-96c1-61 26-98 85-98zm52 81c6-60-76-77-97-28-3 7-6 17-6 28h103" id="aI"/><path d="M206 0h-36l-40-164L89 0H53L-1-190h32L70-26l43-164h34l41 164 42-164h31" id="aJ"/><g id="o"><use transform="matrix(0.05,0,0,0.05,0,0)" xlink:href="#aB"/><use transform="matrix(0.05,0,0,0.05,14,0)" xlink:href="#aC"/><use transform="matrix(0.05,0,0,0.05,24,0)" xlink:href="#aD"/><use transform="matrix(0.05,0,0,0.05,34,0)" xlink:href="#aE"/><use transform="matrix(0.05,0,0,0.05,37.95,0)" xlink:href="#aF"/><use transform="matrix(0.05,0,0,0.05,46.95,0)" xlink:href="#aG"/><use transform="matrix(0.05,0,0,0.05,58.6,0)" xlink:href="#aH"/><use transform="matrix(0.05,0,0,0.05,62.550000000000004,0)" xlink:href="#aI"/><use transform="matrix(0.05,0,0,0.05,72.55000000000001,0)" xlink:href="#aJ"/><path d="M-.9 1.25h87.3v1.32H-.9z"/></g><path d="M212-179c-10-28-35-45-73-45-59 0-87 40-87 99 0 60 29 101 89 101 43 0 62-24 78-52l27 14C228-24 195 4 139 4 59 4 22-46 18-125c-6-104 99-153 187-111 19 9 31 26 39 46" id="aK"/><path d="M117-194c89-4 53 116 60 194h-32v-121c0-31-8-49-39-48C34-167 62-67 57 0H25l-1-190h30c1 10-1 24 2 32 11-22 29-35 61-36" id="aL"/><path d="M59-47c-2 24 18 29 38 22v24C64 9 27 4 27-40v-127H5v-23h24l9-43h21v43h35v23H59v120" id="aM"/><path d="M114-163C36-179 61-72 57 0H25l-1-190h30c1 12-1 29 2 39 6-27 23-49 58-41v29" id="aN"/><g id="p"><use transform="matrix(0.05,0,0,0.05,0,0)" xlink:href="#aB"/><use transform="matrix(0.05,0,0,0.05,14,0)" xlink:href="#aC"/><use transform="matrix(0.05,0,0,0.05,24,0)" xlink:href="#aD"/><use transform="matrix(0.05,0,0,0.05,34,0)" xlink:href="#aE"/><use transform="matrix(0.05,0,0,0.05,37.95,0)" xlink:href="#aF"/><use transform="matrix(0.05,0,0,0.05,46.95,0)" xlink:href="#aK"/><use transform="matrix(0.05,0,0,0.05,59.900000000000006,0)" xlink:href="#aC"/><use transform="matrix(0.05,0,0,0.05,69.9,0)" xlink:href="#aL"/><use transform="matrix(0.05,0,0,0.05,79.9,0)" xlink:href="#aM"/><use transform="matrix(0.05,0,0,0.05,84.9,0)" xlink:href="#aN"/><use transform="matrix(0.05,0,0,0.05,90.85000000000001,0)" xlink:href="#aC"/><use transform="matrix(0.05,0,0,0.05,100.85000000000001,0)" xlink:href="#aE"/><use transform="matrix(0.05,0,0,0.05,104.80000000000001,0)" xlink:href="#aE"/><use transform="matrix(0.05,0,0,0.05,108.75,0)" xlink:href="#aI"/><use transform="matrix(0.05,0,0,0.05,118.75,0)" xlink:href="#aN"/><path d="M-.9 1.25h126.5v1.32H-.9z"/></g><path d="M30-248c87 1 191-15 191 75 0 78-77 80-158 76V0H30v-248zm33 125c57 0 124 11 124-50 0-59-68-47-124-48v98" id="aO"/><path d="M177-190C167-65 218 103 67 71c-23-6-38-20-44-43l32-5c15 47 100 32 89-28v-30C133-14 115 1 83 1 29 1 15-40 15-95c0-56 16-97 71-98 29-1 48 16 59 35 1-10 0-23 2-32h30zM94-22c36 0 50-32 50-73 0-42-14-75-50-75-39 0-46 34-46 75s6 73 46 73" id="aP"/><path d="M185-189c-5-48-123-54-124 2 14 75 158 14 163 119 3 78-121 87-175 55-17-10-28-26-33-46l33-7c5 56 141 63 141-1 0-78-155-14-162-118-5-82 145-84 179-34 5 7 8 16 11 25" id="aQ"/><path d="M140-251c81 0 123 46 123 126C263-53 228-8 163 1c7 30 30 48 69 40v23c-55 16-95-15-103-61C56-3 17-48 17-125c0-80 42-126 123-126zm0 227c63 0 89-41 89-101s-29-99-89-99c-61 0-89 39-89 99S79-25 140-24" id="aR"/><path d="M30 0v-248h33v221h125V0H30" id="aS"/><g id="q"><use transform="matrix(0.05,0,0,0.05,0,0)" xlink:href="#aO"/><use transform="matrix(0.05,0,0,0.05,12,0)" xlink:href="#aC"/><use transform="matrix(0.05,0,0,0.05,22,0)" xlink:href="#aF"/><use transform="matrix(0.05,0,0,0.05,31,0)" xlink:href="#aM"/><use transform="matrix(0.05,0,0,0.05,36,0)" xlink:href="#aP"/><use transform="matrix(0.05,0,0,0.05,46,0)" xlink:href="#aN"/><use transform="matrix(0.05,0,0,0.05,51.95,0)" xlink:href="#aI"/><use transform="matrix(0.05,0,0,0.05,61.95,0)" xlink:href="#aQ"/><use transform="matrix(0.05,0,0,0.05,73.95,0)" xlink:href="#aR"/><use transform="matrix(0.05,0,0,0.05,87.95,0)" xlink:href="#aS"/><path d="M-.9 1.25h99.1v1.32H-.9z"/></g><path d="M30-248c118-7 216 8 213 122C240-48 200 0 122 0H30v-248zM63-27c89 8 146-16 146-99s-60-101-146-95v194" id="aT"/><path d="M115-194c53 0 69 39 70 98 0 66-23 100-70 100C84 3 66-7 56-30L54 0H23l1-261h32v101c10-23 28-34 59-34zm-8 174c40 0 45-34 45-75 0-40-5-75-45-74-42 0-51 32-51 76 0 43 10 73 51 73" id="aU"/><g id="r"><use transform="matrix(0.05,0,0,0.05,0,0)" xlink:href="#aT"/><use transform="matrix(0.05,0,0,0.05,12.950000000000001,0)" xlink:href="#aD"/><use transform="matrix(0.05,0,0,0.05,22.950000000000003,0)" xlink:href="#aM"/><use transform="matrix(0.05,0,0,0.05,27.950000000000003,0)" xlink:href="#aD"/><use transform="matrix(0.05,0,0,0.05,37.95,0)" xlink:href="#aU"/><use transform="matrix(0.05,0,0,0.05,47.95,0)" xlink:href="#aD"/><use transform="matrix(0.05,0,0,0.05,57.95,0)" xlink:href="#aF"/><use transform="matrix(0.05,0,0,0.05,66.95,0)" xlink:href="#aI"/><path d="M-.9 1.25h78.75v1.32H-.9z"/></g><path fill="#333" d="M212-179c-10-28-35-45-73-45-59 0-87 40-87 99 0 60 29 101 89 101 43 0 62-24 78-52l27 14C228-24 195 4 139 4 59 4 22-46 18-125c-6-104 99-153 187-111 19 9 31 26 39 46" id="aV"/><path fill="#333" d="M141-36C126-15 110 5 73 4 37 3 15-17 15-53c-1-64 63-63 125-63 3-35-9-54-41-54-24 1-41 7-42 31l-33-3c5-37 33-52 76-52 45 0 72 20 72 64v82c-1 20 7 32 28 27v20c-31 9-61-2-59-35zM48-53c0 20 12 33 32 33 41-3 63-29 60-74-43 2-92-5-92 41" id="aW"/><path fill="#333" d="M59-47c-2 24 18 29 38 22v24C64 9 27 4 27-40v-127H5v-23h24l9-43h21v43h35v23H59v120" id="aX"/><g id="s"><use transform="matrix(0.05,0,0,0.05,0,0)" xlink:href="#aV"/><use transform="matrix(0.05,0,0,0.05,12.950000000000001,0)" xlink:href="#aA"/><use transform="matrix(0.05,0,0,0.05,18.900000000000002,0)" xlink:href="#az"/><use transform="matrix(0.05,0,0,0.05,28.900000000000002,0)" xlink:href="#aW"/><use transform="matrix(0.05,0,0,0.05,38.900000000000006,0)" xlink:href="#aX"/><use transform="matrix(0.05,0,0,0.05,43.900000000000006,0)" xlink:href="#az"/></g><path fill="#333" d="M143 4C61 4 22-44 18-125c-5-107 100-154 193-111 17 8 29 25 37 43l-32 9c-13-25-37-40-76-40-61 0-88 39-88 99 0 61 29 100 91 101 35 0 62-11 79-27v-45h-74v-28h105v86C228-13 192 4 143 4" id="aY"/><path fill="#333" d="M100-194c62-1 85 37 85 99 1 63-27 99-86 99S16-35 15-95c0-66 28-99 85-99zM99-20c44 1 53-31 53-75 0-43-8-75-51-75s-53 32-53 75 10 74 51 75" id="aZ"/><path fill="#333" d="M24 0v-261h32V0H24" id="ba"/><g id="t"><use transform="matrix(0.05,0,0,0.05,0,0)" xlink:href="#aY"/><use transform="matrix(0.05,0,0,0.05,14,0)" xlink:href="#aZ"/><use transform="matrix(0.05,0,0,0.05,24,0)" xlink:href="#aW"/><use transform="matrix(0.05,0,0,0.05,34,0)" xlink:href="#ba"/></g><path fill="#333" d="M30 0v-248h187v28H63v79h144v27H63v87h162V0H30" id="bb"/><path fill="#333" d="M127-220V0H93v-220H8v-28h204v28h-85" id="bc"/><g id="u"><use transform="matrix(0.05,0,0,0.05,0,0)" xlink:href="#aY"/><use transform="matrix(0.05,0,0,0.05,14,0)" xlink:href="#bb"/><use transform="matrix(0.05,0,0,0.05,26,0)" xlink:href="#bc"/></g><path fill="#333" d="M96-169c-40 0-48 33-48 73s9 75 48 75c24 0 41-14 43-38l32 2c-6 37-31 61-74 61-59 0-76-41-82-99-10-93 101-131 147-64 4 7 5 14 7 22l-32 3c-4-21-16-35-41-35" id="bd"/><path fill="#333" d="M-5 72V49h209v23H-5" id="be"/><path fill="#333" d="M177-190C167-65 218 103 67 71c-23-6-38-20-44-43l32-5c15 47 100 32 89-28v-30C133-14 115 1 83 1 29 1 15-40 15-95c0-56 16-97 71-98 29-1 48 16 59 35 1-10 0-23 2-32h30zM94-22c36 0 50-32 50-73 0-42-14-75-50-75-39 0-46 34-46 75s6 73 46 73" id="bf"/><path fill="#333" d="M87 75C49 33 22-17 22-94c0-76 28-126 65-167h31c-38 41-64 92-64 168S80 34 118 75H87" id="bg"/><path fill="#333" d="M33-261c38 41 65 92 65 168S71 34 33 75H2C39 34 66-17 66-93S39-220 2-261h31" id="bh"/><g id="v"><use transform="matrix(0.05,0,0,0.05,0,0)" xlink:href="#bd"/><use transform="matrix(0.05,0,0,0.05,9,0)" xlink:href="#aA"/><use transform="matrix(0.05,0,0,0.05,14.949999999999998,0)" xlink:href="#az"/><use transform="matrix(0.05,0,0,0.05,24.95,0)" xlink:href="#aW"/><use transform="matrix(0.05,0,0,0.05,34.95,0)" xlink:href="#aX"/><use transform="matrix(0.05,0,0,0.05,39.95,0)" xlink:href="#az"/><use transform="matrix(0.05,0,0,0.05,49.95,0)" xlink:href="#be"/><use transform="matrix(0.05,0,0,0.05,59.95,0)" xlink:href="#bf"/><use transform="matrix(0.05,0,0,0.05,69.95,0)" xlink:href="#aZ"/><use transform="matrix(0.05,0,0,0.05,79.95,0)" xlink:href="#aW"/><use transform="matrix(0.05,0,0,0.05,89.95,0)" xlink:href="#ba"/><use transform="matrix(0.05,0,0,0.05,93.9,0)" xlink:href="#bg"/><use transform="matrix(0.05,0,0,0.05,99.85000000000001,0)" xlink:href="#bh"/></g><path fill="#333" d="M0 4l72-265h28L28 4H0" id="bi"/><path fill="#333" d="M108 0H70L1-190h34L89-25l56-165h34" id="bj"/><path fill="#333" d="M24-231v-30h32v30H24zM24 0v-190h32V0H24" id="bk"/><path fill="#333" d="M206 0h-36l-40-164L89 0H53L-1-190h32L70-26l43-164h34l41 164 42-164h31" id="bl"/><g id="w"><use transform="matrix(0.05,0,0,0.05,0,0)" xlink:href="#bi"/><use transform="matrix(0.05,0,0,0.05,5,0)" xlink:href="#bj"/><use transform="matrix(0.05,0,0,0.05,14,0)" xlink:href="#bk"/><use transform="matrix(0.05,0,0,0.05,17.95,0)" xlink:href="#az"/><use transform="matrix(0.05,0,0,0.05,27.950000000000003,0)" xlink:href="#bl"/><use transform="matrix(0.05,0,0,0.05,40.9,0)" xlink:href="#ay"/><use transform="matrix(0.05,0,0,0.05,49.9,0)" xlink:href="#bi"/><use transform="matrix(0.05,0,0,0.05,54.900000000000006,0)" xlink:href="#bd"/><use transform="matrix(0.05,0,0,0.05,63.900000000000006,0)" xlink:href="#aA"/><use transform="matrix(0.05,0,0,0.05,69.85,0)" xlink:href="#az"/><use transform="matrix(0.05,0,0,0.05,79.85,0)" xlink:href="#aW"/><use transform="matrix(0.05,0,0,0.05,89.85,0)" xlink:href="#aX"/><use transform="matrix(0.05,0,0,0.05,94.85,0)" xlink:href="#az"/><use transform="matrix(0.05,0,0,0.05,104.84999999999998,0)" xlink:href="#be"/><use transform="matrix(0.05,0,0,0.05,114.84999999999998,0)" xlink:href="#bf"/><use transform="matrix(0.05,0,0,0.05,124.84999999999998,0)" xlink:href="#aZ"/><use transform="matrix(0.05,0,0,0.05,134.85,0)" xlink:href="#aW"/><use transform="matrix(0.05,0,0,0.05,144.85,0)" xlink:href="#ba"/></g><path fill="#333" d="M185-189c-5-48-123-54-124 2 14 75 158 14 163 119 3 78-121 87-175 55-17-10-28-26-33-46l33-7c5 56 141 63 141-1 0-78-155-14-162-118-5-82 145-84 179-34 5 7 8 16 11 25" id="bm"/><path fill="#333" d="M106-169C34-169 62-67 57 0H25v-261h32l-1 103c12-21 28-36 61-36 89 0 53 116 60 194h-32v-121c2-32-8-49-39-48" id="bn"/><g id="x"><use transform="matrix(0.05,0,0,0.05,0,0)" xlink:href="#bm"/><use transform="matrix(0.05,0,0,0.05,12,0)" xlink:href="#bn"/><use transform="matrix(0.05,0,0,0.05,22,0)" xlink:href="#aZ"/><use transform="matrix(0.05,0,0,0.05,32,0)" xlink:href="#bl"/></g><path fill="#333" d="M137 0h-34L2-248h35l83 218 83-218h36" id="bo"/><g id="y"><use transform="matrix(0.05,0,0,0.05,0,0)" xlink:href="#bo"/><use transform="matrix(0.05,0,0,0.05,11.65,0)" xlink:href="#bk"/><use transform="matrix(0.05,0,0,0.05,15.600000000000001,0)" xlink:href="#az"/><use transform="matrix(0.05,0,0,0.05,25.6,0)" xlink:href="#bl"/></g><path fill="#333" d="M117-194c89-4 53 116 60 194h-32v-121c0-31-8-49-39-48C34-167 62-67 57 0H25l-1-190h30c1 10-1 24 2 32 11-22 29-35 61-36" id="bp"/><g id="z"><use transform="matrix(0.05,0,0,0.05,0,0)" xlink:href="#bb"/><use transform="matrix(0.05,0,0,0.05,12,0)" xlink:href="#bp"/><use transform="matrix(0.05,0,0,0.05,22,0)" xlink:href="#aX"/><use transform="matrix(0.05,0,0,0.05,27,0)" xlink:href="#az"/><use transform="matrix(0.05,0,0,0.05,37,0)" xlink:href="#aA"/></g><g id="A"><use transform="matrix(0.05,0,0,0.05,0,0)" xlink:href="#aY"/><use transform="matrix(0.05,0,0,0.05,14,0)" xlink:href="#aZ"/><use transform="matrix(0.05,0,0,0.05,24,0)" xlink:href="#aW"/><use transform="matrix(0.05,0,0,0.05,34,0)" xlink:href="#ba"/></g><path fill="#333" d="M30-248c118-7 216 8 213 122C240-48 200 0 122 0H30v-248zM63-27c89 8 146-16 146-99s-60-101-146-95v194" id="bq"/><g id="B"><use transform="matrix(0.05,0,0,0.05,0,0)" xlink:href="#bq"/><use transform="matrix(0.05,0,0,0.05,12.950000000000001,0)" xlink:href="#az"/><use transform="matrix(0.05,0,0,0.05,22.950000000000003,0)" xlink:href="#aX"/><use transform="matrix(0.05,0,0,0.05,27.950000000000003,0)" xlink:href="#aW"/><use transform="matrix(0.05,0,0,0.05,37.95,0)" xlink:href="#bk"/><use transform="matrix(0.05,0,0,0.05,41.900000000000006,0)" xlink:href="#ba"/><use transform="matrix(0.05,0,0,0.05,45.85000000000001,0)" xlink:href="#ay"/></g><path fill="#333" d="M30-248c87 1 191-15 191 75 0 78-77 80-158 76V0H30v-248zm33 125c57 0 124 11 124-50 0-59-68-47-124-48v98" id="br"/><path fill="#333" d="M140-251c81 0 123 46 123 126C263-46 219 4 140 4 59 4 17-45 17-125s42-126 123-126zm0 227c63 0 89-41 89-101s-29-99-89-99c-61 0-89 39-89 99S79-25 140-24" id="bs"/><g id="C"><use transform="matrix(0.05,0,0,0.05,0,0)" xlink:href="#br"/><use transform="matrix(0.05,0,0,0.05,12,0)" xlink:href="#bs"/><use transform="matrix(0.05,0,0,0.05,26,0)" xlink:href="#bm"/><use transform="matrix(0.05,0,0,0.05,38,0)" xlink:href="#bc"/></g><path fill="#333" d="M233-177c-1 41-23 64-60 70L243 0h-38l-65-103H63V0H30v-248c88 3 205-21 203 71zM63-129c60-2 137 13 137-47 0-61-80-42-137-45v92" id="bt"/><path fill="#333" d="M205 0l-28-72H64L36 0H1l101-248h38L239 0h-34zm-38-99l-47-123c-12 45-31 82-46 123h93" id="bu"/><g id="D"><use transform="matrix(0.05,0,0,0.05,0,0)" xlink:href="#aV"/><use transform="matrix(0.05,0,0,0.05,12.950000000000001,0)" xlink:href="#bt"/><use transform="matrix(0.05,0,0,0.05,25.900000000000002,0)" xlink:href="#bb"/><use transform="matrix(0.05,0,0,0.05,37.900000000000006,0)" xlink:href="#bu"/><use transform="matrix(0.05,0,0,0.05,48.550000000000004,0)" xlink:href="#bc"/><use transform="matrix(0.05,0,0,0.05,59.5,0)" xlink:href="#bb"/></g><g id="E"><use transform="matrix(0.05,0,0,0.05,0,0)" xlink:href="#bf"/><use transform="matrix(0.05,0,0,0.05,10,0)" xlink:href="#aZ"/><use transform="matrix(0.05,0,0,0.05,20,0)" xlink:href="#aW"/><use transform="matrix(0.05,0,0,0.05,30,0)" xlink:href="#ba"/></g><g id="F"><use transform="matrix(0.05,0,0,0.05,0,0)" xlink:href="#bm"/><use transform="matrix(0.05,0,0,0.05,12,0)" xlink:href="#ax"/><use transform="matrix(0.05,0,0,0.05,24.950000000000003,0)" xlink:href="#aV"/><use transform="matrix(0.05,0,0,0.05,37.900000000000006,0)" xlink:href="#aV"/><use transform="matrix(0.05,0,0,0.05,50.85000000000001,0)" xlink:href="#bb"/><use transform="matrix(0.05,0,0,0.05,62.85,0)" xlink:href="#bm"/><use transform="matrix(0.05,0,0,0.05,74.85000000000001,0)" xlink:href="#bm"/></g><path fill="#333" d="M84 4C-5 8 30-112 23-190h32v120c0 31 7 50 39 49 72-2 45-101 50-169h31l1 190h-30c-1-10 1-25-2-33-11 22-28 36-60 37" id="bv"/><g id="G"><use transform="matrix(0.05,0,0,0.05,0,0)" xlink:href="#bi"/><use transform="matrix(0.05,0,0,0.05,5,0)" xlink:href="#bj"/><use transform="matrix(0.05,0,0,0.05,14,0)" xlink:href="#bk"/><use transform="matrix(0.05,0,0,0.05,17.95,0)" xlink:href="#az"/><use transform="matrix(0.05,0,0,0.05,27.950000000000003,0)" xlink:href="#bl"/><use transform="matrix(0.05,0,0,0.05,40.9,0)" xlink:href="#ay"/><use transform="matrix(0.05,0,0,0.05,49.9,0)" xlink:href="#bi"/><use transform="matrix(0.05,0,0,0.05,54.900000000000006,0)" xlink:href="#bv"/><use transform="matrix(0.05,0,0,0.05,64.9,0)" xlink:href="#ay"/><use transform="matrix(0.05,0,0,0.05,73.9,0)" xlink:href="#az"/><use transform="matrix(0.05,0,0,0.05,83.9,0)" xlink:href="#aA"/><use transform="matrix(0.05,0,0,0.05,89.85000000000001,0)" xlink:href="#be"/><use transform="matrix(0.05,0,0,0.05,99.85000000000001,0)" xlink:href="#bf"/><use transform="matrix(0.05,0,0,0.05,109.85000000000001,0)" xlink:href="#aZ"/><use transform="matrix(0.05,0,0,0.05,119.85000000000001,0)" xlink:href="#aW"/><use transform="matrix(0.05,0,0,0.05,129.85000000000002,0)" xlink:href="#ba"/><use transform="matrix(0.05,0,0,0.05,133.8,0)" xlink:href="#ay"/></g><path fill="#333" d="M101-234c-31-9-42 10-38 44h38v23H63V0H32v-167H5v-23h27c-7-52 17-82 69-68v24" id="bw"/><path fill="#333" d="M179-190L93 31C79 59 56 82 12 73V49c39 6 53-20 64-50L1-190h34L92-34l54-156h33" id="bx"/><g id="H"><use transform="matrix(0.05,0,0,0.05,0,0)" xlink:href="#bm"/><use transform="matrix(0.05,0,0,0.05,12,0)" xlink:href="#bv"/><use transform="matrix(0.05,0,0,0.05,22,0)" xlink:href="#bd"/><use transform="matrix(0.05,0,0,0.05,31,0)" xlink:href="#bd"/><use transform="matrix(0.05,0,0,0.05,40,0)" xlink:href="#az"/><use transform="matrix(0.05,0,0,0.05,50,0)" xlink:href="#ay"/><use transform="matrix(0.05,0,0,0.05,59,0)" xlink:href="#ay"/><use transform="matrix(0.05,0,0,0.05,68,0)" xlink:href="#bw"/><use transform="matrix(0.05,0,0,0.05,73,0)" xlink:href="#bv"/><use transform="matrix(0.05,0,0,0.05,83,0)" xlink:href="#ba"/><use transform="matrix(0.05,0,0,0.05,86.95,0)" xlink:href="#ba"/><use transform="matrix(0.05,0,0,0.05,90.9,0)" xlink:href="#bx"/></g><path fill="#333" d="M85-194c31 0 48 13 60 33l-1-100h32l1 261h-30c-2-10 0-23-3-31C134-8 116 4 85 4 32 4 16-35 15-94c0-66 23-100 70-100zm9 24c-40 0-46 34-46 75 0 40 6 74 45 74 42 0 51-32 51-76 0-42-9-74-50-73" id="by"/><g id="I"><use transform="matrix(0.05,0,0,0.05,0,0)" xlink:href="#aV"/><use transform="matrix(0.05,0,0,0.05,12.950000000000001,0)" xlink:href="#aA"/><use transform="matrix(0.05,0,0,0.05,18.900000000000002,0)" xlink:href="#az"/><use transform="matrix(0.05,0,0,0.05,28.900000000000002,0)" xlink:href="#aW"/><use transform="matrix(0.05,0,0,0.05,38.900000000000006,0)" xlink:href="#aX"/><use transform="matrix(0.05,0,0,0.05,43.900000000000006,0)" xlink:href="#az"/><use transform="matrix(0.05,0,0,0.05,53.900000000000006,0)" xlink:href="#by"/></g><path fill="#333" d="M33 0v-248h34V0H33" id="bz"/><g id="J"><use transform="matrix(0.05,0,0,0.05,0,0)" xlink:href="#bz"/><use transform="matrix(0.05,0,0,0.05,5,0)" xlink:href="#bp"/><use transform="matrix(0.05,0,0,0.05,15,0)" xlink:href="#bj"/><use transform="matrix(0.05,0,0,0.05,24,0)" xlink:href="#aW"/><use transform="matrix(0.05,0,0,0.05,34,0)" xlink:href="#ba"/><use transform="matrix(0.05,0,0,0.05,37.95,0)" xlink:href="#bk"/><use transform="matrix(0.05,0,0,0.05,41.900000000000006,0)" xlink:href="#by"/></g><g id="K"><use transform="matrix(0.05,0,0,0.05,0,0)" xlink:href="#bq"/><use transform="matrix(0.05,0,0,0.05,12.950000000000001,0)" xlink:href="#az"/><use transform="matrix(0.05,0,0,0.05,22.950000000000003,0)" xlink:href="#aX"/><use transform="matrix(0.05,0,0,0.05,27.950000000000003,0)" xlink:href="#aW"/><use transform="matrix(0.05,0,0,0.05,37.95,0)" xlink:href="#bk"/><use transform="matrix(0.05,0,0,0.05,41.900000000000006,0)" xlink:href="#ba"/><use transform="matrix(0.05,0,0,0.05,45.85000000000001,0)" xlink:href="#ay"/></g><g id="L"><use transform="matrix(0.05,0,0,0.05,0,0)" xlink:href="#br"/><use transform="matrix(0.05,0,0,0.05,12,0)" xlink:href="#aA"/><use transform="matrix(0.05,0,0,0.05,17.95,0)" xlink:href="#aZ"/><use transform="matrix(0.05,0,0,0.05,27.950000000000003,0)" xlink:href="#bj"/><use transform="matrix(0.05,0,0,0.05,36.95,0)" xlink:href="#bk"/><use transform="matrix(0.05,0,0,0.05,40.900000000000006,0)" xlink:href="#by"/><use transform="matrix(0.05,0,0,0.05,50.900000000000006,0)" xlink:href="#az"/><use transform="matrix(0.05,0,0,0.05,60.900000000000006,0)" xlink:href="#by"/></g><g id="M"><use transform="matrix(0.05,0,0,0.05,0,0)" xlink:href="#bu"/><use transform="matrix(0.05,0,0,0.05,12,0)" xlink:href="#ba"/><use transform="matrix(0.05,0,0,0.05,15.949999999999998,0)" xlink:href="#aX"/><use transform="matrix(0.05,0,0,0.05,20.95,0)" xlink:href="#az"/><use transform="matrix(0.05,0,0,0.05,30.950000000000003,0)" xlink:href="#aA"/><use transform="matrix(0.05,0,0,0.05,36.9,0)" xlink:href="#bp"/><use transform="matrix(0.05,0,0,0.05,46.9,0)" xlink:href="#aW"/><use transform="matrix(0.05,0,0,0.05,56.900000000000006,0)" xlink:href="#aX"/><use transform="matrix(0.05,0,0,0.05,61.900000000000006,0)" xlink:href="#bk"/><use transform="matrix(0.05,0,0,0.05,65.85,0)" xlink:href="#bj"/><use transform="matrix(0.05,0,0,0.05,74.85,0)" xlink:href="#az"/></g><path fill="#333" d="M26 75v-336h71v23H56V52h41v23H26" id="bA"/><g id="N"><use transform="matrix(0.05,0,0,0.05,0,0)" xlink:href="#bA"/><use transform="matrix(0.05,0,0,0.05,5,0)" xlink:href="#bo"/><use transform="matrix(0.05,0,0,0.05,15.65,0)" xlink:href="#aW"/><use transform="matrix(0.05,0,0,0.05,25.649999999999995,0)" xlink:href="#ba"/><use transform="matrix(0.05,0,0,0.05,29.599999999999994,0)" xlink:href="#bk"/><use transform="matrix(0.05,0,0,0.05,33.55,0)" xlink:href="#by"/></g><g id="O"><use transform="matrix(0.05,0,0,0.05,0,0)" xlink:href="#bf"/><use transform="matrix(0.05,0,0,0.05,10,0)" xlink:href="#aZ"/><use transform="matrix(0.05,0,0,0.05,20,0)" xlink:href="#aW"/><use transform="matrix(0.05,0,0,0.05,30,0)" xlink:href="#ba"/></g><path fill="#333" d="M3 75V52h41v-290H3v-23h71V75H3" id="bB"/><g id="P"><use transform="matrix(0.05,0,0,0.05,0,0)" xlink:href="#by"/><use transform="matrix(0.05,0,0,0.05,10,0)" xlink:href="#az"/><use transform="matrix(0.05,0,0,0.05,20,0)" xlink:href="#aX"/><use transform="matrix(0.05,0,0,0.05,25,0)" xlink:href="#aW"/><use transform="matrix(0.05,0,0,0.05,35,0)" xlink:href="#bk"/><use transform="matrix(0.05,0,0,0.05,38.95,0)" xlink:href="#ba"/><use transform="matrix(0.05,0,0,0.05,42.900000000000006,0)" xlink:href="#ay"/><use transform="matrix(0.05,0,0,0.05,51.900000000000006,0)" xlink:href="#bB"/></g><g id="Q"><use transform="matrix(0.05,0,0,0.05,0,0)" xlink:href="#bA"/><use transform="matrix(0.05,0,0,0.05,5,0)" xlink:href="#bb"/><use transform="matrix(0.05,0,0,0.05,17,0)" xlink:href="#ba"/><use transform="matrix(0.05,0,0,0.05,20.95,0)" xlink:href="#ay"/><use transform="matrix(0.05,0,0,0.05,29.950000000000003,0)" xlink:href="#az"/><use transform="matrix(0.05,0,0,0.05,39.95,0)" xlink:href="#bB"/></g></defs></g></svg>